<?xml version="1.0" encoding="UTF-8"?>
<!DOCTYPE svg PUBLIC "-//W3C//DTD SVG 1.1//EN" "http://www.w3.org/Graphics/SVG/1.1/DTD/svg11.dtd">
<svg xmlns="http://www.w3.org/2000/svg" version="1.1" width="2048px" height="2048px" style="shape-rendering:geometricPrecision; text-rendering:geometricPrecision; image-rendering:optimizeQuality; fill-rule:evenodd; clip-rule:evenodd" xmlns:xlink="http://www.w3.org/1999/xlink">
<g><path style="opacity:1" fill="#fefefe" d="M -0.5,-0.5 C 682.167,-0.5 1364.83,-0.5 2047.5,-0.5C 2047.5,682.167 2047.5,1364.83 2047.5,2047.5C 1364.83,2047.5 682.167,2047.5 -0.5,2047.5C -0.5,1364.83 -0.5,682.167 -0.5,-0.5 Z"/></g>
<g><path style="opacity:1" fill="#fee4df" d="M 1091.5,273.5 C 1084.83,273.167 1078.17,272.833 1071.5,272.5C 1057.03,271.023 1042.36,270.356 1027.5,270.5C 1012.83,270.691 998.161,271.024 983.5,271.5C 985.292,270.691 987.292,270.191 989.5,270C 1020.18,269.249 1050.84,269.582 1081.5,271C 1085.13,271.149 1088.47,271.982 1091.5,273.5 Z"/></g>
<g><path style="opacity:1" fill="#da5b4d" d="M 1071.5,272.5 C 1029.47,272.042 987.47,272.709 945.5,274.5C 957.976,272.961 970.643,271.961 983.5,271.5C 998.161,271.024 1012.83,270.691 1027.5,270.5C 1042.36,270.356 1057.03,271.023 1071.5,272.5 Z"/></g>
<g><path style="opacity:1" fill="#f04635" d="M 1071.5,272.5 C 1072.61,273.29 1073.94,273.79 1075.5,274C 1082.16,274.5 1088.83,274.666 1095.5,274.5C 1095.83,274.5 1096.17,274.5 1096.5,274.5C 1112.54,277.793 1128.88,279.793 1145.5,280.5C 1145.61,281.117 1145.94,281.617 1146.5,282C 1165.97,285.402 1185.31,288.902 1204.5,292.5C 1205.5,292.5 1206.5,292.5 1207.5,292.5C 1211.1,295.679 1215.44,297.012 1220.5,296.5C 1228.08,297.894 1235.42,299.894 1242.5,302.5C 1250.25,306.522 1258.58,309.188 1267.5,310.5C 1267.83,310.5 1268.17,310.5 1268.5,310.5C 1271.56,313.186 1275.23,314.519 1279.5,314.5C 1283.7,315.27 1287.7,316.604 1291.5,318.5C 1294.79,321.618 1298.79,323.284 1303.5,323.5C 1311.65,326.105 1319.65,329.105 1327.5,332.5C 1330.26,336.118 1333.93,338.118 1338.5,338.5C 1338.28,339.675 1338.61,340.675 1339.5,341.5C 1341.07,340.691 1342.74,340.357 1344.5,340.5C 1432.61,380.275 1510.28,434.942 1577.5,504.5C 1578.77,508.106 1581.11,510.773 1584.5,512.5C 1585.5,512.833 1586.17,513.5 1586.5,514.5C 1589.44,519.105 1593.1,523.105 1597.5,526.5C 1598.5,526.833 1599.17,527.5 1599.5,528.5C 1600.76,531.427 1602.76,533.761 1605.5,535.5C 1611.58,541.242 1616.91,547.575 1621.5,554.5C 1623.21,558.572 1625.87,561.905 1629.5,564.5C 1630.08,566.749 1631.41,568.415 1633.5,569.5C 1667.35,611.811 1695.68,657.811 1718.5,707.5C 1719.17,712.506 1721.17,716.839 1724.5,720.5C 1725.36,724.947 1726.7,729.28 1728.5,733.5C 1727.63,736.309 1727.3,738.976 1727.5,741.5C 1727.83,741.833 1728.17,742.167 1728.5,742.5C 1729.17,741.5 1729.83,740.5 1730.5,739.5C 1730.83,739.667 1731.17,739.833 1731.5,740C 1732.49,744.137 1734.49,747.637 1737.5,750.5C 1737.95,754.163 1738.45,757.83 1739,761.5C 1739.33,761.167 1739.67,760.833 1740,760.5C 1740.7,762.584 1741.86,764.251 1743.5,765.5C 1743.5,765.833 1743.5,766.167 1743.5,766.5C 1743.74,769.914 1744.4,773.247 1745.5,776.5C 1745.98,779.155 1747.31,781.155 1749.5,782.5C 1749.5,782.833 1749.5,783.167 1749.5,783.5C 1751.23,789.039 1752.57,794.706 1753.5,800.5C 1754.15,802.184 1755.15,803.517 1756.5,804.5C 1757.46,806.302 1758.12,808.302 1758.5,810.5C 1758.35,813.716 1759.35,816.383 1761.5,818.5C 1762.97,822.718 1763.97,827.051 1764.5,831.5C 1764.41,834.152 1765.08,836.485 1766.5,838.5C 1768.26,842.547 1769.26,846.88 1769.5,851.5C 1770,855.49 1770.5,859.49 1771,863.5C 1771.85,866.409 1773.02,869.076 1774.5,871.5C 1773.43,880.315 1775.1,888.315 1779.5,895.5C 1779.5,896.5 1779.5,897.5 1779.5,898.5C 1781.42,913.476 1783.25,928.476 1785,943.5C 1785.28,944.416 1785.78,945.082 1786.5,945.5C 1786.17,954.627 1786.84,963.627 1788.5,972.5C 1788.78,985.027 1788.45,997.527 1787.5,1010C 1788.13,1012.75 1789.13,1015.25 1790.5,1017.5C 1789.29,1048.85 1787.95,1080.18 1786.5,1111.5C 1786.5,1112.17 1786.5,1112.83 1786.5,1113.5C 1785.78,1113.92 1785.28,1114.58 1785,1115.5C 1781.93,1134.35 1779.43,1153.35 1777.5,1172.5C 1775.8,1183.98 1773.46,1195.31 1770.5,1206.5C 1768.41,1211.17 1767.08,1216.17 1766.5,1221.5C 1763.27,1228.12 1761.27,1235.12 1760.5,1242.5C 1758.79,1243.64 1758.12,1245.3 1758.5,1247.5C 1757.32,1247.28 1756.32,1247.61 1755.5,1248.5C 1756.06,1249.94 1756.4,1251.44 1756.5,1253C 1755.68,1256.14 1755.01,1259.31 1754.5,1262.5C 1749.18,1281.15 1742.51,1299.15 1734.5,1316.5C 1732.28,1318.59 1730.78,1321.26 1730,1324.5C 1729.58,1323.33 1728.91,1322.33 1728,1321.5C 1727.5,1323.53 1727.67,1325.53 1728.5,1327.5C 1726.45,1331.3 1725.11,1335.3 1724.5,1339.5C 1721.58,1342.87 1719.58,1346.87 1718.5,1351.5C 1715.39,1351.06 1714.72,1352.06 1716.5,1354.5C 1715.45,1356.06 1714.79,1357.72 1714.5,1359.5C 1713.13,1359.34 1711.79,1359.51 1710.5,1360C 1711.57,1360.74 1712.24,1361.74 1712.5,1363C 1711.29,1364.3 1710.63,1365.8 1710.5,1367.5C 1709.02,1367.24 1707.69,1367.57 1706.5,1368.5C 1708,1369.84 1708.67,1371.51 1708.5,1373.5C 1707.27,1373.72 1706.27,1374.39 1705.5,1375.5C 1703.61,1380.03 1701.44,1384.36 1699,1388.5C 1698.51,1389.79 1698.34,1391.13 1698.5,1392.5C 1692.75,1403 1686.75,1413.33 1680.5,1423.5C 1677.44,1425.32 1675.28,1427.99 1674,1431.5C 1673.67,1431.17 1673.33,1430.83 1673,1430.5C 1672.51,1432.13 1672.34,1433.8 1672.5,1435.5C 1671.17,1435.5 1669.83,1435.5 1668.5,1435.5C 1668.66,1437.53 1668.5,1439.53 1668,1441.5C 1665.83,1443.17 1664,1445.17 1662.5,1447.5C 1661.31,1448.43 1659.98,1448.76 1658.5,1448.5C 1658.5,1451.5 1658.5,1454.5 1658.5,1457.5C 1643.15,1479.36 1626.81,1500.53 1609.5,1521C 1607.02,1520.25 1604.69,1518.92 1602.5,1517C 1599.62,1513.62 1596.95,1510.12 1594.5,1506.5C 1593.13,1501.44 1590.46,1497.11 1586.5,1493.5C 1587.64,1492.11 1587.64,1490.78 1586.5,1489.5C 1585.81,1490.03 1585.31,1490.69 1585,1491.5C 1583.93,1489.31 1582.43,1487.64 1580.5,1486.5C 1561.29,1458.09 1544.62,1428.09 1530.5,1396.5C 1530.79,1394.71 1530.45,1393.05 1529.5,1391.5C 1527.84,1388.64 1526.17,1385.98 1524.5,1383.5C 1515.54,1365.32 1507.54,1346.65 1500.5,1327.5C 1499.52,1323.53 1498.52,1319.53 1497.5,1315.5C 1496.85,1313.82 1495.85,1312.48 1494.5,1311.5C 1494.53,1306.93 1493.2,1302.93 1490.5,1299.5C 1490.27,1295.06 1488.94,1291.06 1486.5,1287.5C 1486.81,1285.08 1486.47,1282.74 1485.5,1280.5C 1483.84,1276.3 1482.18,1272.3 1480.5,1268.5C 1480.15,1263.45 1478.81,1258.78 1476.5,1254.5C 1475.39,1252.4 1474.72,1250.07 1474.5,1247.5C 1474.14,1242.07 1473.14,1236.73 1471.5,1231.5C 1470.93,1229.46 1469.93,1227.79 1468.5,1226.5C 1467.61,1222.17 1466.61,1217.83 1465.5,1213.5C 1464.66,1209.01 1463.66,1204.68 1462.5,1200.5C 1461.84,1197.54 1461.51,1194.54 1461.5,1191.5C 1461.04,1186.84 1460.54,1182.17 1460,1177.5C 1459.72,1176.58 1459.22,1175.92 1458.5,1175.5C 1456.03,1151.41 1453.36,1127.41 1450.5,1103.5C 1449.51,1093.01 1449.17,1082.35 1449.5,1071.5C 1449.19,1068.61 1449.53,1065.95 1450.5,1063.5C 1452.52,1059.68 1454.35,1055.68 1456,1051.5C 1456.5,1049.53 1456.66,1047.53 1456.5,1045.5C 1457.33,1042.52 1458.66,1039.85 1460.5,1037.5C 1464.34,1034.51 1466.67,1030.51 1467.5,1025.5C 1475.03,1011.77 1484.03,999.104 1494.5,987.5C 1498.77,984.319 1502.1,980.319 1504.5,975.5C 1508.96,972.381 1512.29,968.381 1514.5,963.5C 1524.82,951.177 1535.49,939.177 1546.5,927.5C 1550.83,925.167 1554.17,921.833 1556.5,917.5C 1561.82,913.181 1566.48,908.181 1570.5,902.5C 1573.1,898.229 1576.43,894.563 1580.5,891.5C 1586.89,886.443 1592.22,880.443 1596.5,873.5C 1605.16,862.846 1614.16,852.512 1623.5,842.5C 1628.47,837.891 1632.47,832.557 1635.5,826.5C 1640.84,818.162 1646.17,809.828 1651.5,801.5C 1658.35,791.28 1662.02,779.946 1662.5,767.5C 1664,763.777 1664.66,759.777 1664.5,755.5C 1664.33,752.833 1664.17,750.167 1664,747.5C 1663.72,746.584 1663.22,745.918 1662.5,745.5C 1660.48,737.505 1657.14,730.172 1652.5,723.5C 1649.98,720.631 1648.31,717.297 1647.5,713.5C 1641.43,712.575 1635.43,711.408 1629.5,710C 1626.3,709.195 1623.3,709.362 1620.5,710.5C 1617.81,710.336 1615.15,710.503 1612.5,711C 1608.17,712.833 1603.83,714.667 1599.5,716.5C 1599.5,717.5 1599.5,718.5 1599.5,719.5C 1591.76,724.904 1585.43,731.571 1580.5,739.5C 1579.18,739.67 1578.01,739.337 1577,738.5C 1576.09,741.513 1575.26,744.513 1574.5,747.5C 1571.72,747.089 1571.06,747.922 1572.5,750C 1571.12,751.597 1570.45,753.43 1570.5,755.5C 1559.44,776.935 1545.44,796.268 1528.5,813.5C 1507.46,833.044 1485.13,850.877 1461.5,867C 1456.93,869.758 1452.26,872.258 1447.5,874.5C 1438.72,877.932 1430.39,881.932 1422.5,886.5C 1418.51,888.587 1414.18,889.92 1409.5,890.5C 1402.13,890.683 1394.8,890.35 1387.5,889.5C 1385.25,888.92 1383.58,887.587 1382.5,885.5C 1380.95,881.041 1379.95,876.374 1379.5,871.5C 1380.08,864.415 1381.08,857.415 1382.5,850.5C 1383.07,847.088 1384.41,844.088 1386.5,841.5C 1389.09,837.621 1391.59,833.621 1394,829.5C 1395.14,826.898 1395.97,824.231 1396.5,821.5C 1410.77,795.286 1424.77,768.953 1438.5,742.5C 1439.71,741.77 1440.71,740.77 1441.5,739.5C 1444.29,729.347 1445.12,719.013 1444,708.5C 1443.16,705.113 1441.66,702.113 1439.5,699.5C 1437.48,697.469 1435.81,695.135 1434.5,692.5C 1434.72,691.325 1434.39,690.325 1433.5,689.5C 1432,688.917 1430.67,688.084 1429.5,687C 1430.96,686.577 1431.46,685.744 1431,684.5C 1429.75,683.789 1428.58,682.956 1427.5,682C 1420.87,680.508 1414.2,679.342 1407.5,678.5C 1403.72,677.175 1399.56,676.509 1395,676.5C 1385.73,676.521 1376.56,677.521 1367.5,679.5C 1366.76,680.182 1366.09,680.849 1365.5,681.5C 1339.33,691.493 1317.5,707.493 1300,729.5C 1293.23,738.725 1286.73,748.058 1280.5,757.5C 1278.55,759.77 1276.22,761.77 1273.5,763.5C 1273.93,764.293 1274.26,765.127 1274.5,766C 1272.72,769.378 1271.22,772.878 1270,776.5C 1269.67,776.167 1269.33,775.833 1269,775.5C 1266.77,781.343 1265.27,787.343 1264.5,793.5C 1264.67,794.492 1264.34,795.158 1263.5,795.5C 1262.84,796.718 1262.17,798.051 1261.5,799.5C 1260.33,810.485 1260.17,821.485 1261,832.5C 1261.74,835.192 1262.91,837.525 1264.5,839.5C 1265.87,841.936 1266.87,844.603 1267.5,847.5C 1267.24,851.653 1268.57,854.987 1271.5,857.5C 1273.3,860.574 1274.3,863.908 1274.5,867.5C 1276.2,879.324 1276.87,891.324 1276.5,903.5C 1276.74,904.791 1276.4,905.791 1275.5,906.5C 1273.24,909.53 1271.41,912.863 1270,916.5C 1269.28,915.549 1268.45,915.383 1267.5,916C 1268.38,917.356 1268.71,918.856 1268.5,920.5C 1263.54,927.131 1257.87,933.131 1251.5,938.5C 1247.19,937.649 1244.53,939.316 1243.5,943.5C 1242.68,944.386 1241.68,944.719 1240.5,944.5C 1240.5,945.5 1240.5,946.5 1240.5,947.5C 1231.6,954.39 1221.93,960.057 1211.5,964.5C 1208.86,964.553 1206.36,965.22 1204,966.5C 1201.27,964.572 1200.1,965.239 1200.5,968.5C 1197.19,968.819 1194.53,970.153 1192.5,972.5C 1191.07,973.537 1189.4,974.204 1187.5,974.5C 1184.26,974.768 1181.09,975.434 1178,976.5C 1176.97,976.836 1176.47,977.503 1176.5,978.5C 1176.17,978.5 1175.83,978.5 1175.5,978.5C 1159.29,981.488 1143.29,984.821 1127.5,988.5C 1100.77,989.054 1074.1,988.054 1047.5,985.5C 1047.17,985.5 1046.83,985.5 1046.5,985.5C 1042.65,982.965 1038.31,981.965 1033.5,982.5C 1028.25,980.306 1022.92,978.306 1017.5,976.5C 1017.69,974.897 1017.19,973.563 1016,972.5C 1014.21,974.229 1012.04,974.896 1009.5,974.5C 988.215,965.715 973.048,950.715 964,929.5C 960.994,921.981 958.494,914.314 956.5,906.5C 956.436,902.78 955.936,899.114 955,895.5C 953.397,893.109 951.897,890.776 950.5,888.5C 949.685,884.856 948.852,881.189 948,877.5C 945.28,869.47 942.113,861.804 938.5,854.5C 937.264,852.351 936.264,850.018 935.5,847.5C 935.298,841.047 933.298,835.381 929.5,830.5C 926.462,824.406 923.796,818.073 921.5,811.5C 920.583,805.346 918.249,800.013 914.5,795.5C 912.659,793.151 911.326,790.485 910.5,787.5C 910.244,785.208 910.577,783.041 911.5,781C 910.747,779.513 909.914,779.346 909,780.5C 908.695,778.443 908.695,776.443 909,774.5C 907.578,774.406 906.078,774.072 904.5,773.5C 902.913,768.933 900.247,765.266 896.5,762.5C 895.471,760.483 894.471,758.483 893.5,756.5C 891.977,753.655 890.977,750.655 890.5,747.5C 887.671,747.675 886.004,746.342 885.5,743.5C 884.583,742.873 883.583,742.539 882.5,742.5C 880.833,741.5 879.5,740.167 878.5,738.5C 876.5,734.5 873.5,731.5 869.5,729.5C 867.1,726.097 864.1,723.43 860.5,721.5C 856.793,719.312 853.46,716.645 850.5,713.5C 849.415,711.413 847.749,710.08 845.5,709.5C 842.381,705.043 838.381,701.709 833.5,699.5C 826.703,693.374 821.036,686.374 816.5,678.5C 813.137,671.051 811.804,663.217 812.5,655C 812.93,648.123 813.596,641.289 814.5,634.5C 821.906,614.135 832.573,595.802 846.5,579.5C 850.015,578.044 853.349,576.378 856.5,574.5C 856.374,572.8 855.707,571.3 854.5,570C 855.416,567.183 857.083,566.017 859.5,566.5C 859.167,565.833 858.833,565.167 858.5,564.5C 860.253,562.49 861.253,560.157 861.5,557.5C 864.82,550.86 868.153,544.193 871.5,537.5C 872.496,537.586 873.329,537.252 874,536.5C 874.878,533.291 876.211,530.291 878,527.5C 878.497,524.854 878.664,522.187 878.5,519.5C 879.983,517.1 881.65,514.766 883.5,512.5C 882.895,504.683 882.229,497.017 881.5,489.5C 878.828,478.808 873.161,470.142 864.5,463.5C 864.586,462.504 864.252,461.671 863.5,461C 858.3,459.26 852.966,458.093 847.5,457.5C 845.167,457.5 842.833,457.5 840.5,457.5C 837.351,456.835 834.018,456.502 830.5,456.5C 823.446,456.871 816.446,457.537 809.5,458.5C 809.5,459.5 809.5,460.5 809.5,461.5C 808.833,461.5 808.167,461.5 807.5,461.5C 804.169,461.018 801.503,462.018 799.5,464.5C 792.379,467.561 785.379,470.894 778.5,474.5C 773.971,474.633 770.638,476.633 768.5,480.5C 745.122,496.211 725.789,515.877 710.5,539.5C 704.771,545.974 701.437,553.641 700.5,562.5C 699.883,562.611 699.383,562.944 699,563.5C 698.172,567.466 697.672,571.466 697.5,575.5C 694.928,586.173 694.928,596.839 697.5,607.5C 697.5,608.167 697.5,608.833 697.5,609.5C 697.795,616.77 698.795,623.937 700.5,631C 701.59,636.484 703.257,641.65 705.5,646.5C 707.885,660.859 705.718,674.526 699,687.5C 694.05,694.784 688.717,701.784 683,708.5C 667.906,723.091 653.406,738.091 639.5,753.5C 637.345,753.372 635.345,753.872 633.5,755C 634.406,756.699 634.739,758.533 634.5,760.5C 633.325,760.281 632.325,760.614 631.5,761.5C 632.127,762.417 632.461,763.417 632.5,764.5C 630.24,768.687 628.24,773.021 626.5,777.5C 623.932,783.658 621.598,789.991 619.5,796.5C 618.533,801.38 617.199,806.047 615.5,810.5C 613.345,815.886 611.845,821.552 611,827.5C 609.353,839.446 608.52,851.446 608.5,863.5C 606.827,876.488 605.661,889.822 605,903.5C 604.679,919.511 604.179,935.511 603.5,951.5C 603.5,952.5 603.5,953.5 603.5,954.5C 601.125,966.272 599.458,978.272 598.5,990.5C 598.101,994.011 597.434,997.344 596.5,1000.5C 594.061,1005.57 592.227,1010.91 591,1016.5C 590.503,1018.81 590.337,1021.14 590.5,1023.5C 590.5,1023.83 590.5,1024.17 590.5,1024.5C 589.533,1025.81 588.199,1026.47 586.5,1026.5C 586.261,1034.53 584.595,1042.2 581.5,1049.5C 579.622,1048.34 578.622,1049.01 578.5,1051.5C 578.996,1055.43 578.996,1059.43 578.5,1063.5C 577.883,1063.61 577.383,1063.94 577,1064.5C 576.814,1066.9 576.314,1069.23 575.5,1071.5C 574.5,1072.83 573.5,1072.83 572.5,1071.5C 572.167,1072 571.833,1072.5 571.5,1073C 572.072,1075.29 572.406,1077.62 572.5,1080C 571.352,1089.73 569.519,1099.23 567,1108.5C 566.5,1115.16 566.334,1121.83 566.5,1128.5C 565.732,1129.26 565.232,1130.26 565,1131.5C 564.218,1145.72 564.718,1159.88 566.5,1174C 566.515,1177.58 567.182,1180.74 568.5,1183.5C 568.251,1187.46 568.918,1191.12 570.5,1194.5C 570.336,1197.19 570.503,1199.85 571,1202.5C 571.383,1203.06 571.883,1203.39 572.5,1203.5C 572.5,1203.83 572.5,1204.17 572.5,1204.5C 572.125,1209.91 573.125,1214.91 575.5,1219.5C 575.41,1222.15 576.076,1224.49 577.5,1226.5C 578.434,1227.57 578.768,1228.9 578.5,1230.5C 578.183,1233.57 578.516,1236.57 579.5,1239.5C 580.011,1241.88 581.011,1243.88 582.5,1245.5C 582.692,1250.27 583.525,1254.94 585,1259.5C 585.383,1260.06 585.883,1260.39 586.5,1260.5C 588.435,1265.57 589.768,1270.91 590.5,1276.5C 589.945,1280.01 590.612,1283.01 592.5,1285.5C 593.785,1288.59 594.451,1291.92 594.5,1295.5C 595.638,1304.77 596.472,1314.11 597,1323.5C 598.187,1333.64 599.854,1343.64 602,1353.5C 606.063,1398.03 607.563,1442.7 606.5,1487.5C 605.71,1488.61 605.21,1489.94 605,1491.5C 604.667,1498.83 604.333,1506.17 604,1513.5C 601.484,1528.68 599.651,1544.01 598.5,1559.5C 598.5,1559.83 598.5,1560.17 598.5,1560.5C 597.013,1563.94 595.846,1567.61 595,1571.5C 594.501,1575.15 594.335,1578.82 594.5,1582.5C 593.85,1584.44 593.517,1586.44 593.5,1588.5C 592.664,1592.32 591.664,1595.99 590.5,1599.5C 589.104,1602.69 587.937,1606.02 587,1609.5C 586.503,1612.15 586.336,1614.81 586.5,1617.5C 585.212,1626.69 582.545,1635.36 578.5,1643.5C 577.141,1644.01 576.141,1645.01 575.5,1646.5C 573.757,1644.96 571.757,1643.96 569.5,1643.5C 566.527,1641.85 563.86,1639.85 561.5,1637.5C 560.415,1635.41 558.749,1634.08 556.5,1633.5C 555.058,1632.18 554.392,1630.51 554.5,1628.5C 551.774,1628.74 549.441,1627.9 547.5,1626C 546.788,1624.57 546.621,1623.07 547,1621.5C 546.586,1621.96 546.086,1622.29 545.5,1622.5C 543.49,1620.75 541.157,1619.75 538.5,1619.5C 537.415,1617.41 535.749,1616.08 533.5,1615.5C 532.089,1613.09 530.089,1611.42 527.5,1610.5C 524.573,1609.24 522.239,1607.24 520.5,1604.5C 515.406,1598.8 509.739,1593.8 503.5,1589.5C 494.527,1581.86 485.86,1573.86 477.5,1565.5C 476.862,1563.54 476.862,1561.71 477.5,1560C 475.26,1559.02 472.927,1558.52 470.5,1558.5C 438.4,1525.76 409.733,1490.42 384.5,1452.5C 383.107,1448.97 381.94,1445.3 381,1441.5C 378.512,1440.35 376.512,1438.69 375,1436.5C 374.023,1433.74 374.856,1431.74 377.5,1430.5C 374.796,1429.43 372.13,1428.43 369.5,1427.5C 369.5,1426.17 369.5,1424.83 369.5,1423.5C 368.5,1423.5 367.5,1423.5 366.5,1423.5C 366.532,1421.38 365.532,1420.05 363.5,1419.5C 361.336,1417.18 359.669,1414.51 358.5,1411.5C 355.986,1404.14 352.653,1397.14 348.5,1390.5C 349.173,1387.81 349.173,1385.98 348.5,1385C 345.743,1384.06 343.41,1382.56 341.5,1380.5C 340.085,1375.52 337.752,1371.18 334.5,1367.5C 332.657,1365.15 331.323,1362.48 330.5,1359.5C 329.642,1352.79 326.975,1347.12 322.5,1342.5C 319.988,1338.13 317.988,1333.47 316.5,1328.5C 315.273,1324.32 313.94,1320.15 312.5,1316C 312.833,1315.17 313.167,1314.33 313.5,1313.5C 314.584,1314.67 315.417,1316 316,1317.5C 316.667,1316.5 316.667,1315.5 316,1314.5C 314.249,1312.51 313.249,1310.18 313,1307.5C 310.503,1307.55 308.503,1306.22 307,1303.5C 306.422,1300.47 305.255,1297.8 303.5,1295.5C 297.343,1282.04 292.343,1268.04 288.5,1253.5C 289.26,1248.09 287.927,1243.43 284.5,1239.5C 283.733,1234.13 282.399,1229.13 280.5,1224.5C 277.658,1213.29 275.325,1201.96 273.5,1190.5C 273.08,1187.38 272.08,1184.72 270.5,1182.5C 267.645,1170.39 265.312,1158.05 263.5,1145.5C 262.949,1142.19 262.616,1138.86 262.5,1135.5C 262.844,1129.9 262.178,1124.57 260.5,1119.5C 259.718,1106.01 258.718,1092.68 257.5,1079.5C 256.735,1076.9 256.401,1074.24 256.5,1071.5C 256.333,1043.5 256.5,1015.5 257,987.5C 258.294,970.85 259.461,954.184 260.5,937.5C 260.194,934.615 260.527,931.948 261.5,929.5C 262.232,928.192 263.066,926.858 264,925.5C 265.495,914.196 266.662,902.862 267.5,891.5C 267.5,891.167 267.5,890.833 267.5,890.5C 268.15,890.196 268.817,889.863 269.5,889.5C 270.387,884.185 271.054,878.852 271.5,873.5C 271.925,868.269 272.925,863.269 274.5,858.5C 276.04,856.162 276.706,853.495 276.5,850.5C 276.565,847.572 277.232,844.905 278.5,842.5C 281.216,837.976 282.549,832.976 282.5,827.5C 283.85,826.517 284.85,825.184 285.5,823.5C 286.356,818.12 287.356,812.787 288.5,807.5C 289.973,805.417 291.14,803.084 292,800.5C 292.696,797.522 293.196,794.522 293.5,791.5C 293.5,791.167 293.5,790.833 293.5,790.5C 295.451,788.52 296.951,786.187 298,783.5C 300.743,774.308 304.076,765.308 308,756.5C 308.822,753.883 309.322,751.216 309.5,748.5C 310.15,748.196 310.817,747.863 311.5,747.5C 313.213,742.763 314.879,738.096 316.5,733.5C 317.5,733.5 318.5,733.5 319.5,733.5C 319.461,731.641 320.294,730.308 322,729.5C 322.359,732.544 323.026,732.878 324,730.5C 325.156,731.993 325.99,731.826 326.5,730C 326.389,728.278 325.889,728.112 325,729.5C 321.078,728.816 319.578,726.482 320.5,722.5C 346.549,663.345 379.882,609.012 420.5,559.5C 424.628,556.71 427.628,553.043 429.5,548.5C 431.582,548.528 433.416,547.861 435,546.5C 435.638,543.236 436.804,540.236 438.5,537.5C 440.017,537.489 441.184,536.823 442,535.5C 444.41,532.603 446.577,529.603 448.5,526.5C 449.443,523.891 451.11,521.891 453.5,520.5C 457.737,517.772 461.571,514.439 465,510.5C 465.483,509.552 465.649,508.552 465.5,507.5C 471.194,503.806 475.861,499.139 479.5,493.5C 483.94,490.237 488.273,486.737 492.5,483C 496.107,479.902 499.107,476.402 501.5,472.5C 505.867,468.132 510.533,464.132 515.5,460.5C 522.09,456.247 528.09,451.247 533.5,445.5C 537.917,440.747 542.917,436.747 548.5,433.5C 554.715,429.891 560.382,425.558 565.5,420.5C 578.239,410.285 591.572,400.785 605.5,392C 612.726,387.556 620.059,383.39 627.5,379.5C 630.256,379.184 632.756,378.184 635,376.5C 637.111,376.565 639.277,376.731 641.5,377C 640.377,375.956 639.044,375.29 637.5,375C 639.618,373.451 641.951,372.284 644.5,371.5C 646.409,369.92 648.075,368.253 649.5,366.5C 662.023,359.071 675.023,352.404 688.5,346.5C 690.604,346.799 692.604,346.466 694.5,345.5C 697.552,343.615 700.718,341.948 704,340.5C 705.789,341.409 707.623,341.576 709.5,341C 711.539,339.074 713.206,336.907 714.5,334.5C 721.233,332.639 727.9,330.472 734.5,328C 736.093,327.051 737.426,325.885 738.5,324.5C 743.653,323.595 748.653,322.095 753.5,320C 755.879,319.284 757.879,318.117 759.5,316.5C 765.233,313.922 771.233,311.922 777.5,310.5C 784.313,309.412 790.98,307.912 797.5,306C 798.381,305.292 799.047,304.458 799.5,303.5C 805.702,303.022 811.702,301.855 817.5,300C 818.571,299.148 819.571,298.315 820.5,297.5C 823.002,297.251 825.502,296.917 828,296.5C 829.681,296.392 830.848,295.725 831.5,294.5C 835.24,294.241 838.906,294.574 842.5,295.5C 847.027,292.57 851.693,290.237 856.5,288.5C 856.833,288.5 857.167,288.5 857.5,288.5C 867.94,288.068 877.94,286.068 887.5,282.5C 895.524,281.992 903.524,281.159 911.5,280C 912.416,279.722 913.082,279.222 913.5,278.5C 918.434,278.771 923.1,278.104 927.5,276.5C 933.069,276.624 938.402,275.957 943.5,274.5C 944.167,274.5 944.833,274.5 945.5,274.5C 987.47,272.709 1029.47,272.042 1071.5,272.5 Z"/></g>
<g><path style="opacity:1" fill="#d95244" d="M 1071.5,272.5 C 1078.17,272.833 1084.83,273.167 1091.5,273.5C 1092.83,273.5 1094.17,273.5 1095.5,273.5C 1095.5,273.833 1095.5,274.167 1095.5,274.5C 1088.83,274.666 1082.16,274.5 1075.5,274C 1073.94,273.79 1072.61,273.29 1071.5,272.5 Z"/></g>
<g><path style="opacity:1" fill="#fac4bc" d="M 1095.5,274.5 C 1095.5,274.167 1095.5,273.833 1095.5,273.5C 1100.45,273.123 1105.12,273.789 1109.5,275.5C 1105.18,275.073 1100.84,274.739 1096.5,274.5C 1096.17,274.5 1095.83,274.5 1095.5,274.5 Z"/></g>
<g><path style="opacity:1" fill="#e2766b" d="M 943.5,274.5 C 938.402,275.957 933.069,276.624 927.5,276.5C 932.616,275.194 937.949,274.527 943.5,274.5 Z"/></g>
<g><path style="opacity:1" fill="#dd6557" d="M 927.5,276.5 C 923.1,278.104 918.434,278.771 913.5,278.5C 917.919,277.028 922.586,276.362 927.5,276.5 Z"/></g>
<g><path style="opacity:1" fill="#dd5343" d="M 1096.5,274.5 C 1100.84,274.739 1105.18,275.073 1109.5,275.5C 1116.15,276.297 1122.82,276.964 1129.5,277.5C 1134.79,278.762 1140.12,279.762 1145.5,280.5C 1128.88,279.793 1112.54,277.793 1096.5,274.5 Z"/></g>
<g><path style="opacity:1" fill="#dd6355" d="M 913.5,278.5 C 913.082,279.222 912.416,279.722 911.5,280C 903.524,281.159 895.524,281.992 887.5,282.5C 895.883,280.158 904.549,278.825 913.5,278.5 Z"/></g>
<g><path style="opacity:1" fill="#e05546" d="M 1145.5,280.5 C 1158.93,282.252 1172.26,284.585 1185.5,287.5C 1192.04,288.802 1198.37,290.468 1204.5,292.5C 1185.31,288.902 1165.97,285.402 1146.5,282C 1145.94,281.617 1145.61,281.117 1145.5,280.5 Z"/></g>
<g><path style="opacity:1" fill="#fee4df" d="M 1129.5,277.5 C 1147.71,278.86 1165.71,281.526 1183.5,285.5C 1184.24,286.182 1184.91,286.849 1185.5,287.5C 1172.26,284.585 1158.93,282.252 1145.5,280.5C 1140.12,279.762 1134.79,278.762 1129.5,277.5 Z"/></g>
<g><path style="opacity:1" fill="#de5d4f" d="M 887.5,282.5 C 877.94,286.068 867.94,288.068 857.5,288.5C 867.204,285.626 877.204,283.626 887.5,282.5 Z"/></g>
<g><path style="opacity:1" fill="#e65546" d="M 856.5,288.5 C 851.693,290.237 847.027,292.57 842.5,295.5C 838.906,294.574 835.24,294.241 831.5,294.5C 839.54,291.741 847.873,289.741 856.5,288.5 Z"/></g>
<g><path style="opacity:1" fill="#dd6154" d="M 1207.5,292.5 C 1212.16,293.089 1216.49,294.422 1220.5,296.5C 1215.44,297.012 1211.1,295.679 1207.5,292.5 Z"/></g>
<g><path style="opacity:1" fill="#dd675a" d="M 831.5,294.5 C 830.848,295.725 829.681,296.392 828,296.5C 825.502,296.917 823.002,297.251 820.5,297.5C 823.854,295.742 827.521,294.742 831.5,294.5 Z"/></g>
<g><path style="opacity:1" fill="#df5849" d="M 820.5,297.5 C 819.571,298.315 818.571,299.148 817.5,300C 811.702,301.855 805.702,303.022 799.5,303.5C 806.187,300.755 813.187,298.755 820.5,297.5 Z"/></g>
<g><path style="opacity:1" fill="#df594a" d="M 799.5,303.5 C 799.047,304.458 798.381,305.292 797.5,306C 790.98,307.912 784.313,309.412 777.5,310.5C 784.499,307.391 791.832,305.057 799.5,303.5 Z"/></g>
<g><path style="opacity:1" fill="#dd5345" d="M 1242.5,302.5 C 1251.18,304.413 1259.51,307.08 1267.5,310.5C 1258.58,309.188 1250.25,306.522 1242.5,302.5 Z"/></g>
<g><path style="opacity:1" fill="#dd584a" d="M 1268.5,310.5 C 1272.53,311.082 1276.2,312.416 1279.5,314.5C 1275.23,314.519 1271.56,313.186 1268.5,310.5 Z"/></g>
<g><path style="opacity:1" fill="#dc6254" d="M 759.5,316.5 C 757.879,318.117 755.879,319.284 753.5,320C 748.653,322.095 743.653,323.595 738.5,324.5C 745.269,321.462 752.269,318.796 759.5,316.5 Z"/></g>
<g><path style="opacity:1" fill="#dc594c" d="M 1291.5,318.5 C 1295.9,319.406 1299.9,321.072 1303.5,323.5C 1298.79,323.284 1294.79,321.618 1291.5,318.5 Z"/></g>
<g><path style="opacity:1" fill="#de5b4f" d="M 738.5,324.5 C 737.426,325.885 736.093,327.051 734.5,328C 727.9,330.472 721.233,332.639 714.5,334.5C 722.203,330.655 730.203,327.321 738.5,324.5 Z"/></g>
<g><path style="opacity:1" fill="#e55445" d="M 1327.5,332.5 C 1333.33,334.914 1338.99,337.581 1344.5,340.5C 1342.74,340.357 1341.07,340.691 1339.5,341.5C 1338.61,340.675 1338.28,339.675 1338.5,338.5C 1333.93,338.118 1330.26,336.118 1327.5,332.5 Z"/></g>
<g><path style="opacity:1" fill="#e45343" d="M 714.5,334.5 C 713.206,336.907 711.539,339.074 709.5,341C 707.623,341.576 705.789,341.409 704,340.5C 700.718,341.948 697.552,343.615 694.5,345.5C 692.604,346.466 690.604,346.799 688.5,346.5C 696.835,341.936 705.501,337.936 714.5,334.5 Z"/></g>
<g><path style="opacity:1" fill="#e45343" d="M 649.5,366.5 C 648.075,368.253 646.409,369.92 644.5,371.5C 641.951,372.284 639.618,373.451 637.5,375C 639.044,375.29 640.377,375.956 641.5,377C 639.277,376.731 637.111,376.565 635,376.5C 632.756,378.184 630.256,379.184 627.5,379.5C 634.307,374.378 641.64,370.044 649.5,366.5 Z"/></g>
<g><path style="opacity:1" fill="#dc5a4f" d="M 565.5,420.5 C 560.382,425.558 554.715,429.891 548.5,433.5C 553.618,428.442 559.285,424.109 565.5,420.5 Z"/></g>
<g><path style="opacity:1" fill="#dc594d" d="M 533.5,445.5 C 528.09,451.247 522.09,456.247 515.5,460.5C 520.91,454.753 526.91,449.753 533.5,445.5 Z"/></g>
<g><path style="opacity:1" fill="#e06153" d="M 840.5,457.5 C 829.828,456.663 819.495,457.996 809.5,461.5C 809.5,460.5 809.5,459.5 809.5,458.5C 816.446,457.537 823.446,456.871 830.5,456.5C 834.018,456.502 837.351,456.835 840.5,457.5 Z"/></g>
<g><path style="opacity:1" fill="#de6151" d="M 847.5,457.5 C 852.966,458.093 858.3,459.26 863.5,461C 864.252,461.671 864.586,462.504 864.5,463.5C 858.748,461.473 853.081,459.473 847.5,457.5 Z"/></g>
<g><path style="opacity:1" fill="#da6257" d="M 807.5,461.5 C 804.924,462.488 802.257,463.488 799.5,464.5C 801.503,462.018 804.169,461.018 807.5,461.5 Z"/></g>
<g><path style="opacity:1" fill="#df584a" d="M 778.5,474.5 C 775.451,476.863 772.118,478.863 768.5,480.5C 770.638,476.633 773.971,474.633 778.5,474.5 Z"/></g>
<g><path style="opacity:1" fill="#dc6154" d="M 501.5,472.5 C 499.107,476.402 496.107,479.902 492.5,483C 488.273,486.737 483.94,490.237 479.5,493.5C 486.201,485.798 493.534,478.798 501.5,472.5 Z"/></g>
<g><path style="opacity:1" fill="#dd6356" d="M 479.5,493.5 C 475.861,499.139 471.194,503.806 465.5,507.5C 469.833,502.5 474.5,497.833 479.5,493.5 Z"/></g>
<g><path style="opacity:1" fill="#df5e4e" d="M 1577.5,504.5 C 1580.55,506.549 1582.88,509.216 1584.5,512.5C 1581.11,510.773 1578.77,508.106 1577.5,504.5 Z"/></g>
<g><path style="opacity:1" fill="#e05142" d="M 881.5,489.5 C 882.229,497.017 882.895,504.683 883.5,512.5C 881.65,514.766 879.983,517.1 878.5,519.5C 878.884,515.414 879.717,511.414 881,507.5C 881.499,501.509 881.666,495.509 881.5,489.5 Z"/></g>
<g><path style="opacity:1" fill="#de584a" d="M 465.5,507.5 C 465.649,508.552 465.483,509.552 465,510.5C 461.571,514.439 457.737,517.772 453.5,520.5C 457.528,516.141 461.528,511.807 465.5,507.5 Z"/></g>
<g><path style="opacity:1" fill="#db6554" d="M 1586.5,514.5 C 1590.9,517.895 1594.56,521.895 1597.5,526.5C 1593.1,523.105 1589.44,519.105 1586.5,514.5 Z"/></g>
<g><path style="opacity:1" fill="#de6a5c" d="M 1599.5,528.5 C 1602.24,530.239 1604.24,532.573 1605.5,535.5C 1602.76,533.761 1600.76,531.427 1599.5,528.5 Z"/></g>
<g><path style="opacity:1" fill="#dc5e52" d="M 448.5,526.5 C 446.577,529.603 444.41,532.603 442,535.5C 441.184,536.823 440.017,537.489 438.5,537.5C 441.123,533.209 444.456,529.543 448.5,526.5 Z"/></g>
<g><path style="opacity:1" fill="#e15c4d" d="M 878.5,519.5 C 878.664,522.187 878.497,524.854 878,527.5C 876.211,530.291 874.878,533.291 874,536.5C 873.329,537.252 872.496,537.586 871.5,537.5C 873.854,531.424 876.188,525.424 878.5,519.5 Z"/></g>
<g><path style="opacity:1" fill="#e45547" d="M 438.5,537.5 C 436.804,540.236 435.638,543.236 435,546.5C 433.416,547.861 431.582,548.528 429.5,548.5C 432.129,544.537 435.129,540.871 438.5,537.5 Z"/></g>
<g><path style="opacity:1" fill="#dd5a4d" d="M 429.5,548.5 C 427.628,553.043 424.628,556.71 420.5,559.5C 423.129,555.537 426.129,551.871 429.5,548.5 Z"/></g>
<g><path style="opacity:1" fill="#dc584a" d="M 710.5,539.5 C 706.536,546.716 703.536,554.382 701.5,562.5C 701.167,562.5 700.833,562.5 700.5,562.5C 701.437,553.641 704.771,545.974 710.5,539.5 Z"/></g>
<g><path style="opacity:1" fill="#de6152" d="M 1621.5,554.5 C 1624.64,557.46 1627.31,560.793 1629.5,564.5C 1625.87,561.905 1623.21,558.572 1621.5,554.5 Z"/></g>
<g><path style="opacity:1" fill="#dd685c" d="M 1629.5,564.5 C 1631.59,565.585 1632.92,567.251 1633.5,569.5C 1631.41,568.415 1630.08,566.749 1629.5,564.5 Z"/></g>
<g><path style="opacity:1" fill="#d85243" d="M 700.5,562.5 C 699.863,567.035 698.863,571.368 697.5,575.5C 697.672,571.466 698.172,567.466 699,563.5C 699.383,562.944 699.883,562.611 700.5,562.5 Z"/></g>
<g><path style="opacity:1" fill="#e84f40" d="M 861.5,557.5 C 861.253,560.157 860.253,562.49 858.5,564.5C 858.833,565.167 859.167,565.833 859.5,566.5C 857.083,566.017 855.416,567.183 854.5,570C 855.707,571.3 856.374,572.8 856.5,574.5C 853.349,576.378 850.015,578.044 846.5,579.5C 851.008,571.812 856.008,564.478 861.5,557.5 Z"/></g>
<g><path style="opacity:1" fill="#fee9e5" d="M 700.5,562.5 C 700.833,562.5 701.167,562.5 701.5,562.5C 698.517,579.386 697.85,596.386 699.5,613.5C 698.833,612.167 698.167,610.833 697.5,609.5C 697.5,608.833 697.5,608.167 697.5,607.5C 697.5,596.833 697.5,586.167 697.5,575.5C 698.863,571.368 699.863,567.035 700.5,562.5 Z"/></g>
<g><path style="opacity:1" fill="#e26355" d="M 697.5,575.5 C 697.5,586.167 697.5,596.833 697.5,607.5C 694.928,596.839 694.928,586.173 697.5,575.5 Z"/></g>
<g><path style="opacity:1" fill="#df6458" d="M 697.5,609.5 C 698.167,610.833 698.833,612.167 699.5,613.5C 701.025,624.598 703.025,635.598 705.5,646.5C 703.257,641.65 701.59,636.484 700.5,631C 698.795,623.937 697.795,616.77 697.5,609.5 Z"/></g>
<g><path style="opacity:1" fill="#e25b4d" d="M 814.5,634.5 C 813.596,641.289 812.93,648.123 812.5,655C 811.804,663.217 813.137,671.051 816.5,678.5C 814.36,676.3 812.86,673.633 812,670.5C 808.126,658.038 808.959,646.038 814.5,634.5 Z"/></g>
<g><path style="opacity:1" fill="#d95346" d="M 1407.5,678.5 C 1393.28,676.634 1379.28,677.634 1365.5,681.5C 1366.09,680.849 1366.76,680.182 1367.5,679.5C 1376.56,677.521 1385.73,676.521 1395,676.5C 1399.56,676.509 1403.72,677.175 1407.5,678.5 Z"/></g>
<g><path style="opacity:1" fill="#e75140" d="M 1407.5,678.5 C 1414.2,679.342 1420.87,680.508 1427.5,682C 1428.58,682.956 1429.75,683.789 1431,684.5C 1431.46,685.744 1430.96,686.577 1429.5,687C 1430.67,688.084 1432,688.917 1433.5,689.5C 1434.39,690.325 1434.72,691.325 1434.5,692.5C 1426.71,685.44 1417.71,680.773 1407.5,678.5 Z"/></g>
<g><path style="opacity:1" fill="#dd6354" d="M 833.5,699.5 C 838.381,701.709 842.381,705.043 845.5,709.5C 841.202,706.537 837.202,703.203 833.5,699.5 Z"/></g>
<g><path style="opacity:1" fill="#dc665b" d="M 845.5,709.5 C 847.749,710.08 849.415,711.413 850.5,713.5C 848.251,712.92 846.585,711.587 845.5,709.5 Z"/></g>
<g><path style="opacity:1" fill="#df6254" d="M 1718.5,707.5 C 1721.28,711.405 1723.28,715.738 1724.5,720.5C 1721.17,716.839 1719.17,712.506 1718.5,707.5 Z"/></g>
<g><path style="opacity:1" fill="#e25446" d="M 1620.5,710.5 C 1623.3,709.362 1626.3,709.195 1629.5,710C 1635.43,711.408 1641.43,712.575 1647.5,713.5C 1648.31,717.297 1649.98,720.631 1652.5,723.5C 1645.86,716.848 1637.86,712.848 1628.5,711.5C 1626.05,710.527 1623.39,710.194 1620.5,710.5 Z"/></g>
<g><path style="opacity:1" fill="#e46659" d="M 1620.5,710.5 C 1623.39,710.194 1626.05,710.527 1628.5,711.5C 1617.69,710.425 1608.03,713.092 1599.5,719.5C 1599.5,718.5 1599.5,717.5 1599.5,716.5C 1603.83,714.667 1608.17,712.833 1612.5,711C 1615.15,710.503 1617.81,710.336 1620.5,710.5 Z"/></g>
<g><path style="opacity:1" fill="#dc5748" d="M 1439.5,699.5 C 1441.66,702.113 1443.16,705.113 1444,708.5C 1445.12,719.013 1444.29,729.347 1441.5,739.5C 1440.71,740.77 1439.71,741.77 1438.5,742.5C 1441.05,734.824 1442.71,726.99 1443.5,719C 1443.19,712.239 1441.85,705.739 1439.5,699.5 Z"/></g>
<g><path style="opacity:1" fill="#dd6658" d="M 860.5,721.5 C 864.1,723.43 867.1,726.097 869.5,729.5C 865.9,727.57 862.9,724.903 860.5,721.5 Z"/></g>
<g><path style="opacity:1" fill="#e75141" d="M 320.5,722.5 C 319.578,726.482 321.078,728.816 325,729.5C 325.889,728.112 326.389,728.278 326.5,730C 325.99,731.826 325.156,731.993 324,730.5C 323.026,732.878 322.359,732.544 322,729.5C 320.294,730.308 319.461,731.641 319.5,733.5C 318.5,733.5 317.5,733.5 316.5,733.5C 314.879,738.096 313.213,742.763 311.5,747.5C 310.817,747.863 310.15,748.196 309.5,748.5C 312.655,739.534 316.321,730.868 320.5,722.5 Z"/></g>
<g><path style="opacity:1" fill="#da584c" d="M 869.5,729.5 C 873.5,731.5 876.5,734.5 878.5,738.5C 875.167,735.833 872.167,732.833 869.5,729.5 Z"/></g>
<g><path style="opacity:1" fill="#e65443" d="M 1724.5,720.5 C 1729.59,730.093 1733.93,740.093 1737.5,750.5C 1734.49,747.637 1732.49,744.137 1731.5,740C 1731.17,739.833 1730.83,739.667 1730.5,739.5C 1729.83,740.5 1729.17,741.5 1728.5,742.5C 1728.17,742.167 1727.83,741.833 1727.5,741.5C 1727.3,738.976 1727.63,736.309 1728.5,733.5C 1726.7,729.28 1725.36,724.947 1724.5,720.5 Z"/></g>
<g><path style="opacity:1" fill="#e05241" d="M 1580.5,739.5 C 1577.15,744.869 1573.82,750.203 1570.5,755.5C 1570.45,753.43 1571.12,751.597 1572.5,750C 1571.06,747.922 1571.72,747.089 1574.5,747.5C 1575.26,744.513 1576.09,741.513 1577,738.5C 1578.01,739.337 1579.18,739.67 1580.5,739.5 Z"/></g>
<g><path style="opacity:1" fill="#e25546" d="M 882.5,742.5 C 883.583,742.539 884.583,742.873 885.5,743.5C 886.004,746.342 887.671,747.675 890.5,747.5C 890.977,750.655 891.977,753.655 893.5,756.5C 889.362,752.235 885.695,747.569 882.5,742.5 Z"/></g>
<g><path style="opacity:1" fill="#dd6355" d="M 1662.5,745.5 C 1663.22,745.918 1663.72,746.584 1664,747.5C 1664.17,750.167 1664.33,752.833 1664.5,755.5C 1664.66,759.777 1664,763.777 1662.5,767.5C 1662.5,760.167 1662.5,752.833 1662.5,745.5 Z"/></g>
<g><path style="opacity:1" fill="#df5d4f" d="M 1737.5,750.5 C 1739.74,755.32 1741.74,760.32 1743.5,765.5C 1741.86,764.251 1740.7,762.584 1740,760.5C 1739.67,760.833 1739.33,761.167 1739,761.5C 1738.45,757.83 1737.95,754.163 1737.5,750.5 Z"/></g>
<g><path style="opacity:1" fill="#e55546" d="M 639.5,753.5 C 637.554,757.439 635.221,761.106 632.5,764.5C 632.461,763.417 632.127,762.417 631.5,761.5C 632.325,760.614 633.325,760.281 634.5,760.5C 634.739,758.533 634.406,756.699 633.5,755C 635.345,753.872 637.345,753.372 639.5,753.5 Z"/></g>
<g><path style="opacity:1" fill="#e05445" d="M 1280.5,757.5 C 1274.18,769.138 1268.85,781.138 1264.5,793.5C 1265.27,787.343 1266.77,781.343 1269,775.5C 1269.33,775.833 1269.67,776.167 1270,776.5C 1271.22,772.878 1272.72,769.378 1274.5,766C 1274.26,765.127 1273.93,764.293 1273.5,763.5C 1276.22,761.77 1278.55,759.77 1280.5,757.5 Z"/></g>
<g><path style="opacity:1" fill="#e55042" d="M 896.5,762.5 C 900.247,765.266 902.913,768.933 904.5,773.5C 906.078,774.072 907.578,774.406 909,774.5C 908.695,776.443 908.695,778.443 909,780.5C 909.914,779.346 910.747,779.513 911.5,781C 910.577,783.041 910.244,785.208 910.5,787.5C 906.102,779.04 901.436,770.707 896.5,762.5 Z"/></g>
<g><path style="opacity:1" fill="#df584a" d="M 1743.5,766.5 C 1746.07,771.525 1748.07,776.859 1749.5,782.5C 1747.31,781.155 1745.98,779.155 1745.5,776.5C 1744.4,773.247 1743.74,769.914 1743.5,766.5 Z"/></g>
<g><path style="opacity:1" fill="#fee4e0" d="M 626.5,777.5 C 625.489,783.207 623.989,788.874 622,794.5C 621.583,795.756 620.75,796.423 619.5,796.5C 621.598,789.991 623.932,783.658 626.5,777.5 Z"/></g>
<g><path style="opacity:1" fill="#de5e4f" d="M 309.5,748.5 C 309.322,751.216 308.822,753.883 308,756.5C 304.076,765.308 300.743,774.308 298,783.5C 296.951,786.187 295.451,788.52 293.5,790.5C 298.266,776.191 303.599,762.191 309.5,748.5 Z"/></g>
<g><path style="opacity:1" fill="#df6053" d="M 1662.5,767.5 C 1662.02,779.946 1658.35,791.28 1651.5,801.5C 1656.41,790.454 1660.07,779.121 1662.5,767.5 Z"/></g>
<g><path style="opacity:1" fill="#df6053" d="M 293.5,791.5 C 293.196,794.522 292.696,797.522 292,800.5C 291.14,803.084 289.973,805.417 288.5,807.5C 289.391,801.832 291.058,796.498 293.5,791.5 Z"/></g>
<g><path style="opacity:1" fill="#e35a49" d="M 1749.5,783.5 C 1752.81,790.085 1755.14,797.085 1756.5,804.5C 1755.15,803.517 1754.15,802.184 1753.5,800.5C 1752.57,794.706 1751.23,789.039 1749.5,783.5 Z"/></g>
<g><path style="opacity:1" fill="#df5b4c" d="M 914.5,795.5 C 918.249,800.013 920.583,805.346 921.5,811.5C 918.655,806.469 916.322,801.136 914.5,795.5 Z"/></g>
<g><path style="opacity:1" fill="#e17468" d="M 1758.5,810.5 C 1759.87,812.936 1760.87,815.603 1761.5,818.5C 1759.35,816.383 1758.35,813.716 1758.5,810.5 Z"/></g>
<g><path style="opacity:1" fill="#e05a4c" d="M 615.5,810.5 C 612.742,828.238 610.409,845.904 608.5,863.5C 608.52,851.446 609.353,839.446 611,827.5C 611.845,821.552 613.345,815.886 615.5,810.5 Z"/></g>
<g><path style="opacity:1" fill="#e25a4c" d="M 288.5,807.5 C 287.356,812.787 286.356,818.12 285.5,823.5C 284.85,825.184 283.85,826.517 282.5,827.5C 283.898,820.557 285.898,813.891 288.5,807.5 Z"/></g>
<g><path style="opacity:1" fill="#de5b4d" d="M 1263.5,795.5 C 1260.59,810.237 1260.92,824.904 1264.5,839.5C 1262.91,837.525 1261.74,835.192 1261,832.5C 1260.17,821.485 1260.33,810.485 1261.5,799.5C 1262.17,798.051 1262.84,796.718 1263.5,795.5 Z"/></g>
<g><path style="opacity:1" fill="#dd5e52" d="M 1635.5,826.5 C 1632.47,832.557 1628.47,837.891 1623.5,842.5C 1627.02,836.8 1631.02,831.467 1635.5,826.5 Z"/></g>
<g><path style="opacity:1" fill="#de5d4e" d="M 1396.5,821.5 C 1395.97,824.231 1395.14,826.898 1394,829.5C 1391.59,833.621 1389.09,837.621 1386.5,841.5C 1389.27,834.491 1392.61,827.825 1396.5,821.5 Z"/></g>
<g><path style="opacity:1" fill="#e15e50" d="M 929.5,830.5 C 933.298,835.381 935.298,841.047 935.5,847.5C 933.274,842.02 931.274,836.354 929.5,830.5 Z"/></g>
<g><path style="opacity:1" fill="#d96b61" d="M 1764.5,831.5 C 1765.92,833.515 1766.59,835.848 1766.5,838.5C 1765.08,836.485 1764.41,834.152 1764.5,831.5 Z"/></g>
<g><path style="opacity:1" fill="#db5f52" d="M 282.5,827.5 C 282.549,832.976 281.216,837.976 278.5,842.5C 279.076,837.191 280.409,832.191 282.5,827.5 Z"/></g>
<g><path style="opacity:1" fill="#df5c4e" d="M 1267.5,847.5 C 1269.35,850.54 1270.68,853.873 1271.5,857.5C 1268.57,854.987 1267.24,851.653 1267.5,847.5 Z"/></g>
<g><path style="opacity:1" fill="#d86e62" d="M 276.5,850.5 C 276.706,853.495 276.04,856.162 274.5,858.5C 274.565,855.572 275.232,852.905 276.5,850.5 Z"/></g>
<g><path style="opacity:1" fill="#de5b4f" d="M 938.5,854.5 C 942.113,861.804 945.28,869.47 948,877.5C 948.852,881.189 949.685,884.856 950.5,888.5C 945.594,877.576 941.594,866.243 938.5,854.5 Z"/></g>
<g><path style="opacity:1" fill="#dd6153" d="M 1769.5,851.5 C 1772.08,857.827 1773.75,864.493 1774.5,871.5C 1773.02,869.076 1771.85,866.409 1771,863.5C 1770.5,859.49 1770,855.49 1769.5,851.5 Z"/></g>
<g><path style="opacity:1" fill="#e25b4d" d="M 1382.5,850.5 C 1381.08,857.415 1380.08,864.415 1379.5,871.5C 1379.95,876.374 1380.95,881.041 1382.5,885.5C 1381.21,884.942 1380.38,883.942 1380,882.5C 1376.41,871.443 1377.25,860.776 1382.5,850.5 Z"/></g>
<g><path style="opacity:1" fill="#de6153" d="M 608.5,863.5 C 607.328,890.159 606.328,916.825 605.5,943.5C 604.833,946.167 604.167,948.833 603.5,951.5C 604.179,935.511 604.679,919.511 605,903.5C 605.661,889.822 606.827,876.488 608.5,863.5 Z"/></g>
<g><path style="opacity:1" fill="#dd594c" d="M 1447.5,874.5 C 1439.83,879.626 1431.5,883.626 1422.5,886.5C 1430.39,881.932 1438.72,877.932 1447.5,874.5 Z"/></g>
<g><path style="opacity:1" fill="#dc6052" d="M 1596.5,873.5 C 1592.22,880.443 1586.89,886.443 1580.5,891.5C 1585.49,885.177 1590.82,879.177 1596.5,873.5 Z"/></g>
<g><path style="opacity:1" fill="#e25d4e" d="M 271.5,873.5 C 271.054,878.852 270.387,884.185 269.5,889.5C 268.817,889.863 268.15,890.196 267.5,890.5C 268.088,884.539 269.421,878.873 271.5,873.5 Z"/></g>
<g><path style="opacity:1" fill="#df6153" d="M 1274.5,867.5 C 1278.73,879.351 1279.39,891.351 1276.5,903.5C 1276.87,891.324 1276.2,879.324 1274.5,867.5 Z"/></g>
<g><path style="opacity:1" fill="#e06052" d="M 1774.5,871.5 C 1776.45,879.319 1778.12,887.319 1779.5,895.5C 1775.1,888.315 1773.43,880.315 1774.5,871.5 Z"/></g>
<g><path style="opacity:1" fill="#df6457" d="M 1387.5,889.5 C 1394.8,890.35 1402.13,890.683 1409.5,890.5C 1403.73,892.22 1397.73,892.72 1391.5,892C 1389.93,891.392 1388.6,890.558 1387.5,889.5 Z"/></g>
<g><path style="opacity:1" fill="#e25342" d="M 950.5,888.5 C 951.897,890.776 953.397,893.109 955,895.5C 955.936,899.114 956.436,902.78 956.5,906.5C 953.924,900.773 951.924,894.773 950.5,888.5 Z"/></g>
<g><path style="opacity:1" fill="#e05f50" d="M 267.5,891.5 C 266.662,902.862 265.495,914.196 264,925.5C 263.066,926.858 262.232,928.192 261.5,929.5C 262.586,916.58 264.586,903.914 267.5,891.5 Z"/></g>
<g><path style="opacity:1" fill="#de5849" d="M 1275.5,906.5 C 1274.68,912.006 1272.34,916.673 1268.5,920.5C 1268.71,918.856 1268.38,917.356 1267.5,916C 1268.45,915.383 1269.28,915.549 1270,916.5C 1271.41,912.863 1273.24,909.53 1275.5,906.5 Z"/></g>
<g><path style="opacity:1" fill="#dc5d4f" d="M 1570.5,902.5 C 1566.48,908.181 1561.82,913.181 1556.5,917.5C 1560.46,911.871 1565.13,906.871 1570.5,902.5 Z"/></g>
<g><path style="opacity:1" fill="#de6253" d="M 1779.5,898.5 C 1783.21,913.827 1785.55,929.494 1786.5,945.5C 1785.78,945.082 1785.28,944.416 1785,943.5C 1783.25,928.476 1781.42,913.476 1779.5,898.5 Z"/></g>
<g><path style="opacity:1" fill="#dd5f54" d="M 1556.5,917.5 C 1554.17,921.833 1550.83,925.167 1546.5,927.5C 1549.5,923.833 1552.83,920.5 1556.5,917.5 Z"/></g>
<g><path style="opacity:1" fill="#e25342" d="M 1251.5,938.5 C 1248.15,941.848 1244.48,944.848 1240.5,947.5C 1240.5,946.5 1240.5,945.5 1240.5,944.5C 1241.68,944.719 1242.68,944.386 1243.5,943.5C 1244.53,939.316 1247.19,937.649 1251.5,938.5 Z"/></g>
<g><path style="opacity:1" fill="#dc6255" d="M 603.5,954.5 C 603.5,956.167 603.5,957.833 603.5,959.5C 602.5,968.167 601.5,976.834 600.5,985.5C 599.833,987.167 599.167,988.833 598.5,990.5C 599.458,978.272 601.125,966.272 603.5,954.5 Z"/></g>
<g><path style="opacity:1" fill="#fac7c1" d="M 605.5,943.5 C 605.624,949.069 604.957,954.402 603.5,959.5C 603.5,957.833 603.5,956.167 603.5,954.5C 603.5,953.5 603.5,952.5 603.5,951.5C 604.167,948.833 604.833,946.167 605.5,943.5 Z"/></g>
<g><path style="opacity:1" fill="#e1695b" d="M 1786.5,945.5 C 1788.15,954.287 1789.15,963.287 1789.5,972.5C 1789.17,972.5 1788.83,972.5 1788.5,972.5C 1786.84,963.627 1786.17,954.627 1786.5,945.5 Z"/></g>
<g><path style="opacity:1" fill="#e25546" d="M 1211.5,964.5 C 1205.57,967.927 1199.24,970.594 1192.5,972.5C 1194.53,970.153 1197.19,968.819 1200.5,968.5C 1200.1,965.239 1201.27,964.572 1204,966.5C 1206.36,965.22 1208.86,964.553 1211.5,964.5 Z"/></g>
<g><path style="opacity:1" fill="#dc5f51" d="M 1514.5,963.5 C 1512.29,968.381 1508.96,972.381 1504.5,975.5C 1507.46,971.202 1510.8,967.202 1514.5,963.5 Z"/></g>
<g><path style="opacity:1" fill="#e25948" d="M 1033.5,982.5 C 1025.09,980.806 1017.09,978.14 1009.5,974.5C 1012.04,974.896 1014.21,974.229 1016,972.5C 1017.19,973.563 1017.69,974.897 1017.5,976.5C 1022.92,978.306 1028.25,980.306 1033.5,982.5 Z"/></g>
<g><path style="opacity:1" fill="#dd5c4e" d="M 1187.5,974.5 C 1184.2,976.601 1180.54,977.935 1176.5,978.5C 1176.47,977.503 1176.97,976.836 1178,976.5C 1181.09,975.434 1184.26,974.768 1187.5,974.5 Z"/></g>
<g><path style="opacity:1" fill="#de6457" d="M 1033.5,982.5 C 1038.31,981.965 1042.65,982.965 1046.5,985.5C 1042.01,984.66 1037.68,983.66 1033.5,982.5 Z"/></g>
<g><path style="opacity:1" fill="#dc5f53" d="M 1504.5,975.5 C 1502.1,980.319 1498.77,984.319 1494.5,987.5C 1497.37,983.091 1500.7,979.091 1504.5,975.5 Z"/></g>
<g><path style="opacity:1" fill="#dc5447" d="M 1175.5,978.5 C 1160.12,984.18 1144.12,987.514 1127.5,988.5C 1143.29,984.821 1159.29,981.488 1175.5,978.5 Z"/></g>
<g><path style="opacity:1" fill="#df6758" d="M 1047.5,985.5 C 1074.1,988.054 1100.77,989.054 1127.5,988.5C 1109,989.662 1090.34,989.829 1071.5,989C 1063.27,988.42 1055.27,987.254 1047.5,985.5 Z"/></g>
<g><path style="opacity:1" fill="#fde4df" d="M 600.5,985.5 C 599.671,991.487 598.838,997.487 598,1003.5C 597.392,1005.07 596.558,1006.4 595.5,1007.5C 595.674,1005.14 596.007,1002.81 596.5,1000.5C 597.434,997.344 598.101,994.011 598.5,990.5C 599.167,988.833 599.833,987.167 600.5,985.5 Z"/></g>
<g><path style="opacity:1" fill="#e05a4c" d="M 596.5,1000.5 C 596.007,1002.81 595.674,1005.14 595.5,1007.5C 594.434,1013.12 592.767,1018.45 590.5,1023.5C 590.337,1021.14 590.503,1018.81 591,1016.5C 592.227,1010.91 594.061,1005.57 596.5,1000.5 Z"/></g>
<g><path style="opacity:1" fill="#e24d3f" d="M 1788.5,972.5 C 1788.83,972.5 1789.17,972.5 1789.5,972.5C 1789.5,973.5 1789.5,974.5 1789.5,975.5C 1790.05,982.153 1790.39,988.82 1790.5,995.5C 1790.5,1002.83 1790.5,1010.17 1790.5,1017.5C 1789.13,1015.25 1788.13,1012.75 1787.5,1010C 1788.45,997.527 1788.78,985.027 1788.5,972.5 Z"/></g>
<g><path style="opacity:1" fill="#fef0ed" d="M 1789.5,975.5 C 1790.93,978.903 1791.76,982.57 1792,986.5C 1792.67,1015.83 1792.67,1045.17 1792,1074.5C 1791.77,1075.74 1791.27,1076.74 1790.5,1077.5C 1791.68,1050 1791.68,1022.67 1790.5,995.5C 1790.39,988.82 1790.05,982.153 1789.5,975.5 Z"/></g>
<g><path style="opacity:1" fill="#dd5d4f" d="M 260.5,937.5 C 259.461,954.184 258.294,970.85 257,987.5C 256.5,1015.5 256.333,1043.5 256.5,1071.5C 256.167,1071.5 255.833,1071.5 255.5,1071.5C 254.681,1046.51 254.348,1021.51 254.5,996.5C 255.591,976.61 257.591,956.943 260.5,937.5 Z"/></g>
<g><path style="opacity:1" fill="#dd5c4e" d="M 1467.5,1025.5 C 1466.67,1030.51 1464.34,1034.51 1460.5,1037.5C 1462.33,1033.16 1464.67,1029.16 1467.5,1025.5 Z"/></g>
<g><path style="opacity:1" fill="#ffebe6" d="M 254.5,996.5 C 254.348,1021.51 254.681,1046.51 255.5,1071.5C 255.768,1078.68 256.435,1085.68 257.5,1092.5C 257.454,1100.9 258.12,1109.23 259.5,1117.5C 258.4,1115.72 257.566,1113.72 257,1111.5C 253.644,1073.07 252.811,1034.74 254.5,996.5 Z"/></g>
<g><path style="opacity:1" fill="#e05f52" d="M 1456.5,1045.5 C 1456.66,1047.53 1456.5,1049.53 1456,1051.5C 1454.35,1055.68 1452.52,1059.68 1450.5,1063.5C 1451.53,1057.09 1453.53,1051.09 1456.5,1045.5 Z"/></g>
<g><path style="opacity:1" fill="#e45445" d="M 590.5,1024.5 C 587.561,1037.95 583.561,1050.95 578.5,1063.5C 578.996,1059.43 578.996,1055.43 578.5,1051.5C 578.622,1049.01 579.622,1048.34 581.5,1049.5C 584.595,1042.2 586.261,1034.53 586.5,1026.5C 588.199,1026.47 589.533,1025.81 590.5,1024.5 Z"/></g>
<g><path style="opacity:1" fill="#e1584a" d="M 1790.5,995.5 C 1791.68,1022.67 1791.68,1050 1790.5,1077.5C 1789.01,1088.77 1788.01,1100.1 1787.5,1111.5C 1787.17,1111.5 1786.83,1111.5 1786.5,1111.5C 1787.95,1080.18 1789.29,1048.85 1790.5,1017.5C 1790.5,1010.17 1790.5,1002.83 1790.5,995.5 Z"/></g>
<g><path style="opacity:1" fill="#d86b5f" d="M 255.5,1071.5 C 255.833,1071.5 256.167,1071.5 256.5,1071.5C 256.401,1074.24 256.735,1076.9 257.5,1079.5C 257.5,1083.83 257.5,1088.17 257.5,1092.5C 256.435,1085.68 255.768,1078.68 255.5,1071.5 Z"/></g>
<g><path style="opacity:1" fill="#d96053" d="M 1032.5,1087.5 C 1019.44,1087.21 1006.44,1087.88 993.5,1089.5C 996.577,1088.14 999.91,1087.31 1003.5,1087C 1013.34,1086.18 1023.01,1086.34 1032.5,1087.5 Z"/></g>
<g><path style="opacity:1" fill="#f04635" d="M 1032.5,1087.5 C 1035.5,1087.5 1038.5,1087.5 1041.5,1087.5C 1052.05,1089.48 1062.72,1091.48 1073.5,1093.5C 1104.32,1100.24 1131.98,1113.41 1156.5,1133C 1168.7,1143.68 1178.37,1156.18 1185.5,1170.5C 1186.62,1172.52 1186.62,1174.52 1185.5,1176.5C 1186.5,1177.17 1187.5,1177.83 1188.5,1178.5C 1190.02,1182.23 1192.02,1185.56 1194.5,1188.5C 1194.34,1190.53 1194.5,1192.53 1195,1194.5C 1197.08,1198.93 1199.25,1203.27 1201.5,1207.5C 1202.3,1209.04 1202.63,1210.71 1202.5,1212.5C 1202.41,1215.15 1203.08,1217.49 1204.5,1219.5C 1204.34,1222.52 1204.5,1225.52 1205,1228.5C 1205.2,1230.32 1206.03,1231.65 1207.5,1232.5C 1207.68,1243.07 1209.02,1253.41 1211.5,1263.5C 1212.18,1264.24 1212.85,1264.91 1213.5,1265.5C 1213.5,1266.5 1213.5,1267.5 1213.5,1268.5C 1213.85,1274.84 1214.35,1281.17 1215,1287.5C 1215.23,1288.74 1215.73,1289.74 1216.5,1290.5C 1218.07,1297.29 1219.07,1304.29 1219.5,1311.5C 1219.41,1322.66 1221.08,1333.33 1224.5,1343.5C 1225.45,1344.92 1225.78,1346.59 1225.5,1348.5C 1225.34,1351.19 1225.5,1353.85 1226,1356.5C 1226.28,1357.42 1226.78,1358.08 1227.5,1358.5C 1227.5,1359.5 1227.5,1360.5 1227.5,1361.5C 1227.76,1368.54 1228.43,1375.54 1229.5,1382.5C 1230.18,1383.6 1230.84,1384.6 1231.5,1385.5C 1231.5,1386.17 1231.5,1386.83 1231.5,1387.5C 1231.12,1391.49 1231.78,1395.16 1233.5,1398.5C 1233.5,1399.5 1233.5,1400.5 1233.5,1401.5C 1233.24,1414.69 1235.24,1427.36 1239.5,1439.5C 1239.5,1440.5 1239.5,1441.5 1239.5,1442.5C 1239.98,1450.16 1240.48,1457.83 1241,1465.5C 1241.92,1475.59 1243.75,1485.25 1246.5,1494.5C 1246.5,1494.83 1246.5,1495.17 1246.5,1495.5C 1246.93,1507.19 1247.76,1518.86 1249,1530.5C 1250.33,1539.74 1251.67,1549.07 1253,1558.5C 1253.38,1559.06 1253.88,1559.39 1254.5,1559.5C 1254.5,1560.17 1254.5,1560.83 1254.5,1561.5C 1255.82,1584.83 1257.66,1608.17 1260,1631.5C 1260.67,1656.17 1260.67,1680.83 1260,1705.5C 1258.61,1712.72 1257.44,1720.05 1256.5,1727.5C 1255.92,1730.33 1254.59,1732.66 1252.5,1734.5C 1251.27,1734.72 1250.27,1735.39 1249.5,1736.5C 1248.91,1736.29 1248.41,1735.96 1248,1735.5C 1247.51,1736.79 1247.34,1738.13 1247.5,1739.5C 1246.18,1739.67 1245.01,1739.34 1244,1738.5C 1242.41,1740.42 1240.91,1742.42 1239.5,1744.5C 1239.71,1745.09 1240.04,1745.59 1240.5,1746C 1239.1,1746.59 1237.77,1746.43 1236.5,1745.5C 1233.92,1748.06 1232.25,1751.06 1231.5,1754.5C 1231.03,1755.91 1230.03,1756.57 1228.5,1756.5C 1226.43,1756.45 1224.6,1757.12 1223,1758.5C 1220.92,1757.06 1220.09,1757.72 1220.5,1760.5C 1217.83,1761.37 1215.17,1762.37 1212.5,1763.5C 1211.39,1764.27 1210.72,1765.27 1210.5,1766.5C 1210.16,1767.34 1209.49,1767.67 1208.5,1767.5C 1204.18,1768.04 1199.85,1768.54 1195.5,1769C 1192.18,1769.75 1189.18,1770.92 1186.5,1772.5C 1182.77,1774.13 1178.77,1775.13 1174.5,1775.5C 1169.4,1776.59 1164.4,1777.59 1159.5,1778.5C 1149.55,1780.22 1139.55,1781.56 1129.5,1782.5C 1120.67,1783.23 1112,1784.23 1103.5,1785.5C 1090.68,1785.78 1078.02,1786.61 1065.5,1788C 1043.5,1788.67 1021.5,1788.67 999.5,1788C 998.376,1787.75 997.376,1787.25 996.5,1786.5C 998.04,1785.47 998.54,1784.13 998,1782.5C 996.426,1783.85 994.593,1784.51 992.5,1784.5C 990.182,1784 987.848,1783.67 985.5,1783.5C 983.371,1781.66 981.038,1779.99 978.5,1778.5C 976.929,1777.69 975.262,1777.36 973.5,1777.5C 971.973,1777.57 970.973,1776.91 970.5,1775.5C 969.855,1774.19 968.855,1773.19 967.5,1772.5C 966.571,1771.31 966.238,1769.98 966.5,1768.5C 964.801,1768.66 963.134,1768.49 961.5,1768C 960.211,1766.2 958.544,1765.03 956.5,1764.5C 946.546,1754.84 939.879,1743.17 936.5,1729.5C 936.691,1724.81 935.357,1720.81 932.5,1717.5C 931.827,1708.3 929.993,1699.3 927,1690.5C 926.126,1681.26 924.626,1672.26 922.5,1663.5C 923.234,1652.42 922.234,1641.76 919.5,1631.5C 918.521,1628.38 918.187,1625.04 918.5,1621.5C 918.667,1610.49 918.5,1599.49 918,1588.5C 917.802,1586.62 917.302,1584.95 916.5,1583.5C 916.667,1561.83 916.5,1540.16 916,1518.5C 915.827,1512.98 915.327,1507.65 914.5,1502.5C 914.13,1418.15 914.796,1333.82 916.5,1249.5C 918.372,1241.03 919.039,1232.36 918.5,1223.5C 919.29,1222.39 919.79,1221.06 920,1219.5C 920.577,1212.5 921.077,1205.5 921.5,1198.5C 921.5,1198.17 921.5,1197.83 921.5,1197.5C 923.198,1193.06 924.531,1188.39 925.5,1183.5C 926.487,1180.23 926.82,1176.9 926.5,1173.5C 932.006,1160.58 936.673,1147.25 940.5,1133.5C 942.993,1127.02 946.659,1121.35 951.5,1116.5C 957.193,1111.14 962.86,1105.81 968.5,1100.5C 968.973,1099.09 969.973,1098.43 971.5,1098.5C 976.018,1097.44 980.018,1095.44 983.5,1092.5C 986.505,1090.72 989.838,1089.72 993.5,1089.5C 1006.44,1087.88 1019.44,1087.21 1032.5,1087.5 Z"/></g>
<g><path style="opacity:1" fill="#fee2dd" d="M 1041.5,1087.5 C 1051.61,1087.69 1061.61,1088.86 1071.5,1091C 1072.38,1091.71 1073.05,1092.54 1073.5,1093.5C 1062.72,1091.48 1052.05,1089.48 1041.5,1087.5 Z"/></g>
<g><path style="opacity:1" fill="#de5d4f" d="M 983.5,1092.5 C 980.018,1095.44 976.018,1097.44 971.5,1098.5C 974.902,1095.47 978.902,1093.47 983.5,1092.5 Z"/></g>
<g><path style="opacity:1" fill="#ffe9e5" d="M 1449.5,1071.5 C 1449.17,1082.35 1449.51,1093.01 1450.5,1103.5C 1450.38,1110.53 1450.71,1117.53 1451.5,1124.5C 1450.4,1122.72 1449.57,1120.72 1449,1118.5C 1448.17,1102.66 1448.34,1086.99 1449.5,1071.5 Z"/></g>
<g><path style="opacity:1" fill="#db5d51" d="M 968.5,1100.5 C 962.86,1105.81 957.193,1111.14 951.5,1116.5C 955.88,1109.79 961.547,1104.45 968.5,1100.5 Z"/></g>
<g><path style="opacity:1" fill="#de594b" d="M 1450.5,1103.5 C 1453.36,1127.41 1456.03,1151.41 1458.5,1175.5C 1456.05,1164.42 1454.39,1153.08 1453.5,1141.5C 1453.67,1137.49 1453.5,1133.49 1453,1129.5C 1452.72,1128.58 1452.22,1127.92 1451.5,1127.5C 1451.5,1126.5 1451.5,1125.5 1451.5,1124.5C 1450.71,1117.53 1450.38,1110.53 1450.5,1103.5 Z"/></g>
<g><path style="opacity:1" fill="#de5749" d="M 257.5,1079.5 C 258.718,1092.68 259.718,1106.01 260.5,1119.5C 260.167,1119.5 259.833,1119.5 259.5,1119.5C 259.5,1118.83 259.5,1118.17 259.5,1117.5C 258.12,1109.23 257.454,1100.9 257.5,1092.5C 257.5,1088.17 257.5,1083.83 257.5,1079.5 Z"/></g>
<g><path style="opacity:1" fill="#e56051" d="M 578.5,1063.5 C 574.377,1080.67 570.877,1098 568,1115.5C 567.5,1130.16 567.333,1144.83 567.5,1159.5C 566.506,1149.35 566.172,1139.01 566.5,1128.5C 566.334,1121.83 566.5,1115.16 567,1108.5C 569.519,1099.23 571.352,1089.73 572.5,1080C 572.406,1077.62 572.072,1075.29 571.5,1073C 571.833,1072.5 572.167,1072 572.5,1071.5C 573.5,1072.83 574.5,1072.83 575.5,1071.5C 576.314,1069.23 576.814,1066.9 577,1064.5C 577.383,1063.94 577.883,1063.61 578.5,1063.5 Z"/></g>
<g><path style="opacity:1" fill="#d75245" d="M 260.5,1119.5 C 262.178,1124.57 262.844,1129.9 262.5,1135.5C 261.194,1130.38 260.527,1125.05 260.5,1119.5 Z"/></g>
<g><path style="opacity:1" fill="#fee2dd" d="M 1786.5,1111.5 C 1786.83,1111.5 1787.17,1111.5 1787.5,1111.5C 1787.53,1122.57 1786.2,1133.24 1783.5,1143.5C 1784.83,1133.55 1785.83,1123.55 1786.5,1113.5C 1786.5,1112.83 1786.5,1112.17 1786.5,1111.5 Z"/></g>
<g><path style="opacity:1" fill="#dc7266" d="M 1451.5,1127.5 C 1452.22,1127.92 1452.72,1128.58 1453,1129.5C 1453.5,1133.49 1453.67,1137.49 1453.5,1141.5C 1452.58,1137.01 1451.91,1132.34 1451.5,1127.5 Z"/></g>
<g><path style="opacity:1" fill="#fee1da" d="M 259.5,1119.5 C 259.833,1119.5 260.167,1119.5 260.5,1119.5C 260.527,1125.05 261.194,1130.38 262.5,1135.5C 262.616,1138.86 262.949,1142.19 263.5,1145.5C 262.542,1145.05 261.708,1144.38 261,1143.5C 260.433,1135.5 259.933,1127.5 259.5,1119.5 Z"/></g>
<g><path style="opacity:1" fill="#de5546" d="M 1786.5,1113.5 C 1785.83,1123.55 1784.83,1133.55 1783.5,1143.5C 1781.92,1153.25 1779.92,1162.91 1777.5,1172.5C 1779.43,1153.35 1781.93,1134.35 1785,1115.5C 1785.28,1114.58 1785.78,1113.92 1786.5,1113.5 Z"/></g>
<g><path style="opacity:1" fill="#e45242" d="M 566.5,1128.5 C 566.172,1139.01 566.506,1149.35 567.5,1159.5C 568.054,1166.15 568.388,1172.82 568.5,1179.5C 568.5,1180.83 568.5,1182.17 568.5,1183.5C 567.182,1180.74 566.515,1177.58 566.5,1174C 564.718,1159.88 564.218,1145.72 565,1131.5C 565.232,1130.26 565.732,1129.26 566.5,1128.5 Z"/></g>
<g><path style="opacity:1" fill="#de5d4f" d="M 940.5,1133.5 C 936.673,1147.25 932.006,1160.58 926.5,1173.5C 929.005,1159.31 933.672,1145.98 940.5,1133.5 Z"/></g>
<g><path style="opacity:1" fill="#e05d4e" d="M 1185.5,1170.5 C 1189.53,1175.9 1192.53,1181.9 1194.5,1188.5C 1192.02,1185.56 1190.02,1182.23 1188.5,1178.5C 1187.5,1177.83 1186.5,1177.17 1185.5,1176.5C 1186.62,1174.52 1186.62,1172.52 1185.5,1170.5 Z"/></g>
<g><path style="opacity:1" fill="#e06759" d="M 926.5,1173.5 C 926.82,1176.9 926.487,1180.23 925.5,1183.5C 924.531,1188.39 923.198,1193.06 921.5,1197.5C 922.164,1189.17 923.831,1181.17 926.5,1173.5 Z"/></g>
<g><path style="opacity:1" fill="#db5a4e" d="M 1458.5,1175.5 C 1459.22,1175.92 1459.72,1176.58 1460,1177.5C 1460.54,1182.17 1461.04,1186.84 1461.5,1191.5C 1459.86,1186.42 1458.86,1181.08 1458.5,1175.5 Z"/></g>
<g><path style="opacity:1" fill="#e06e61" d="M 568.5,1179.5 C 569.889,1184.27 570.556,1189.27 570.5,1194.5C 568.918,1191.12 568.251,1187.46 568.5,1183.5C 568.5,1182.17 568.5,1180.83 568.5,1179.5 Z"/></g>
<g><path style="opacity:1" fill="#e05b4f" d="M 1194.5,1188.5 C 1197.4,1194.53 1199.73,1200.86 1201.5,1207.5C 1199.25,1203.27 1197.08,1198.93 1195,1194.5C 1194.5,1192.53 1194.34,1190.53 1194.5,1188.5 Z"/></g>
<g><path style="opacity:1" fill="#db6458" d="M 570.5,1194.5 C 571.657,1197.27 572.324,1200.27 572.5,1203.5C 571.883,1203.39 571.383,1203.06 571,1202.5C 570.503,1199.85 570.336,1197.19 570.5,1194.5 Z"/></g>
<g><path style="opacity:1" fill="#db5c4d" d="M 270.5,1182.5 C 272.08,1184.72 273.08,1187.38 273.5,1190.5C 275.325,1201.96 277.658,1213.29 280.5,1224.5C 275.93,1210.88 272.596,1196.88 270.5,1182.5 Z"/></g>
<g><path style="opacity:1" fill="#fbd2cc" d="M 1462.5,1200.5 C 1463.66,1204.68 1464.66,1209.01 1465.5,1213.5C 1462.84,1209.73 1461.84,1205.39 1462.5,1200.5 Z"/></g>
<g><path style="opacity:1" fill="#de6052" d="M 572.5,1204.5 C 574.075,1209.27 575.075,1214.27 575.5,1219.5C 573.125,1214.91 572.125,1209.91 572.5,1204.5 Z"/></g>
<g><path style="opacity:1" fill="#dd695a" d="M 1770.5,1206.5 C 1769.91,1211.81 1768.58,1216.81 1766.5,1221.5C 1767.08,1216.17 1768.41,1211.17 1770.5,1206.5 Z"/></g>
<g><path style="opacity:1" fill="#da5c4e" d="M 921.5,1198.5 C 921.077,1205.5 920.577,1212.5 920,1219.5C 919.79,1221.06 919.29,1222.39 918.5,1223.5C 918.729,1214.93 919.729,1206.6 921.5,1198.5 Z"/></g>
<g><path style="opacity:1" fill="#da7166" d="M 1202.5,1212.5 C 1203.92,1214.51 1204.59,1216.85 1204.5,1219.5C 1203.08,1217.49 1202.41,1215.15 1202.5,1212.5 Z"/></g>
<g><path style="opacity:1" fill="#d86456" d="M 575.5,1219.5 C 576.924,1221.51 577.59,1223.85 577.5,1226.5C 576.076,1224.49 575.41,1222.15 575.5,1219.5 Z"/></g>
<g><path style="opacity:1" fill="#dc5c4b" d="M 1766.5,1221.5 C 1765.57,1228.92 1763.57,1235.92 1760.5,1242.5C 1761.27,1235.12 1763.27,1228.12 1766.5,1221.5 Z"/></g>
<g><path style="opacity:1" fill="#e16353" d="M 1204.5,1219.5 C 1206.12,1223.57 1207.12,1227.91 1207.5,1232.5C 1206.03,1231.65 1205.2,1230.32 1205,1228.5C 1204.5,1225.52 1204.34,1222.52 1204.5,1219.5 Z"/></g>
<g><path style="opacity:1" fill="#de594d" d="M 280.5,1224.5 C 282.399,1229.13 283.733,1234.13 284.5,1239.5C 282.218,1234.87 280.884,1229.87 280.5,1224.5 Z"/></g>
<g><path style="opacity:1" fill="#e36555" d="M 918.5,1223.5 C 919.039,1232.36 918.372,1241.03 916.5,1249.5C 916.167,1249.5 915.833,1249.5 915.5,1249.5C 915.737,1240.6 916.737,1231.94 918.5,1223.5 Z"/></g>
<g><path style="opacity:1" fill="#e15a4b" d="M 1468.5,1226.5 C 1469.93,1227.79 1470.93,1229.46 1471.5,1231.5C 1473.14,1236.73 1474.14,1242.07 1474.5,1247.5C 1471.75,1240.83 1469.75,1233.83 1468.5,1226.5 Z"/></g>
<g><path style="opacity:1" fill="#de5a4d" d="M 578.5,1230.5 C 580.203,1235.29 581.536,1240.29 582.5,1245.5C 581.011,1243.88 580.011,1241.88 579.5,1239.5C 578.516,1236.57 578.183,1233.57 578.5,1230.5 Z"/></g>
<g><path style="opacity:1" fill="#e35949" d="M 1760.5,1242.5 C 1759.41,1249.55 1757.41,1256.22 1754.5,1262.5C 1755.01,1259.31 1755.68,1256.14 1756.5,1253C 1756.4,1251.44 1756.06,1249.94 1755.5,1248.5C 1756.32,1247.61 1757.32,1247.28 1758.5,1247.5C 1758.12,1245.3 1758.79,1243.64 1760.5,1242.5 Z"/></g>
<g><path style="opacity:1" fill="#e2594e" d="M 284.5,1239.5 C 287.927,1243.43 289.26,1248.09 288.5,1253.5C 286.877,1249.02 285.544,1244.35 284.5,1239.5 Z"/></g>
<g><path style="opacity:1" fill="#e16153" d="M 1207.5,1232.5 C 1210.02,1243.28 1212.02,1254.28 1213.5,1265.5C 1212.85,1264.91 1212.18,1264.24 1211.5,1263.5C 1209.02,1253.41 1207.68,1243.07 1207.5,1232.5 Z"/></g>
<g><path style="opacity:1" fill="#dd6051" d="M 582.5,1245.5 C 584.591,1250.19 585.924,1255.19 586.5,1260.5C 585.883,1260.39 585.383,1260.06 585,1259.5C 583.525,1254.94 582.692,1250.27 582.5,1245.5 Z"/></g>
<g><path style="opacity:1" fill="#db5746" d="M 1476.5,1254.5 C 1478.81,1258.78 1480.15,1263.45 1480.5,1268.5C 1478.3,1264.19 1476.96,1259.52 1476.5,1254.5 Z"/></g>
<g><path style="opacity:1" fill="#de574c" d="M 1480.5,1268.5 C 1482.18,1272.3 1483.84,1276.3 1485.5,1280.5C 1486.47,1282.74 1486.81,1285.08 1486.5,1287.5C 1483.44,1281.61 1481.44,1275.27 1480.5,1268.5 Z"/></g>
<g><path style="opacity:1" fill="#e16659" d="M 590.5,1276.5 C 591.657,1279.27 592.324,1282.27 592.5,1285.5C 590.612,1283.01 589.945,1280.01 590.5,1276.5 Z"/></g>
<g><path style="opacity:1" fill="#db6254" d="M 1213.5,1268.5 C 1214.97,1275.63 1215.97,1282.97 1216.5,1290.5C 1215.73,1289.74 1215.23,1288.74 1215,1287.5C 1214.35,1281.17 1213.85,1274.84 1213.5,1268.5 Z"/></g>
<g><path style="opacity:1" fill="#db5748" d="M 1486.5,1287.5 C 1488.94,1291.06 1490.27,1295.06 1490.5,1299.5C 1488.57,1295.8 1487.23,1291.8 1486.5,1287.5 Z"/></g>
<g><path style="opacity:1" fill="#db564b" d="M 1490.5,1299.5 C 1493.2,1302.93 1494.53,1306.93 1494.5,1311.5C 1492.65,1307.78 1491.32,1303.78 1490.5,1299.5 Z"/></g>
<g><path style="opacity:1" fill="#e75041" d="M 303.5,1295.5 C 305.255,1297.8 306.422,1300.47 307,1303.5C 308.503,1306.22 310.503,1307.55 313,1307.5C 313.249,1310.18 314.249,1312.51 316,1314.5C 316.667,1315.5 316.667,1316.5 316,1317.5C 315.417,1316 314.584,1314.67 313.5,1313.5C 313.167,1314.33 312.833,1315.17 312.5,1316C 313.94,1320.15 315.273,1324.32 316.5,1328.5C 314.398,1325.07 312.565,1321.4 311,1317.5C 308.187,1310.23 305.687,1302.89 303.5,1295.5 Z"/></g>
<g><path style="opacity:1" fill="#e15142" d="M 1734.5,1316.5 C 1731.94,1324.62 1728.6,1332.28 1724.5,1339.5C 1725.11,1335.3 1726.45,1331.3 1728.5,1327.5C 1727.67,1325.53 1727.5,1323.53 1728,1321.5C 1728.91,1322.33 1729.58,1323.33 1730,1324.5C 1730.78,1321.26 1732.28,1318.59 1734.5,1316.5 Z"/></g>
<g><path style="opacity:1" fill="#de5d4f" d="M 1494.5,1311.5 C 1495.85,1312.48 1496.85,1313.82 1497.5,1315.5C 1498.52,1319.53 1499.52,1323.53 1500.5,1327.5C 1497.93,1322.47 1495.93,1317.14 1494.5,1311.5 Z"/></g>
<g><path style="opacity:1" fill="#de6053" d="M 1219.5,1311.5 C 1221.97,1321.91 1223.64,1332.58 1224.5,1343.5C 1221.08,1333.33 1219.41,1322.66 1219.5,1311.5 Z"/></g>
<g><path style="opacity:1" fill="#e06053" d="M 915.5,1249.5 C 915.833,1249.5 916.167,1249.5 916.5,1249.5C 914.796,1333.82 914.13,1418.15 914.5,1502.5C 914.5,1502.83 914.5,1503.17 914.5,1503.5C 913.501,1439.67 913.168,1375.67 913.5,1311.5C 913.285,1290.8 913.951,1270.13 915.5,1249.5 Z"/></g>
<g><path style="opacity:1" fill="#df5b4d" d="M 322.5,1342.5 C 326.975,1347.12 329.642,1352.79 330.5,1359.5C 327.076,1354.25 324.41,1348.58 322.5,1342.5 Z"/></g>
<g><path style="opacity:1" fill="#e25346" d="M 1724.5,1339.5 C 1720.1,1351.41 1714.77,1362.74 1708.5,1373.5C 1708.67,1371.51 1708,1369.84 1706.5,1368.5C 1707.69,1367.57 1709.02,1367.24 1710.5,1367.5C 1710.63,1365.8 1711.29,1364.3 1712.5,1363C 1712.24,1361.74 1711.57,1360.74 1710.5,1360C 1711.79,1359.51 1713.13,1359.34 1714.5,1359.5C 1714.79,1357.72 1715.45,1356.06 1716.5,1354.5C 1714.72,1352.06 1715.39,1351.06 1718.5,1351.5C 1719.58,1346.87 1721.58,1342.87 1724.5,1339.5 Z"/></g>
<g><path style="opacity:1" fill="#e17b70" d="M 1225.5,1348.5 C 1226.58,1351.63 1227.25,1354.96 1227.5,1358.5C 1226.78,1358.08 1226.28,1357.42 1226,1356.5C 1225.5,1353.85 1225.34,1351.19 1225.5,1348.5 Z"/></g>
<g><path style="opacity:1" fill="#f04635" d="M 762.5,1395.5 C 762.338,1397.53 762.505,1399.53 763,1401.5C 764.419,1403.99 765.919,1406.33 767.5,1408.5C 768.301,1410.04 768.634,1411.71 768.5,1413.5C 768.41,1416.15 769.076,1418.49 770.5,1420.5C 771.451,1421.92 771.784,1423.59 771.5,1425.5C 772.13,1432.25 773.297,1438.92 775,1445.5C 775.099,1447.65 775.933,1449.32 777.5,1450.5C 777.5,1450.83 777.5,1451.17 777.5,1451.5C 777.67,1456.86 778.17,1462.19 779,1467.5C 779.2,1469.32 780.034,1470.65 781.5,1471.5C 781.5,1472.5 781.5,1473.5 781.5,1474.5C 781.98,1486.24 783.147,1497.91 785,1509.5C 785.278,1510.42 785.778,1511.08 786.5,1511.5C 787.741,1534.2 789.741,1556.86 792.5,1579.5C 794.223,1618.14 794.89,1656.81 794.5,1695.5C 792.74,1700.55 792.073,1705.89 792.5,1711.5C 791.505,1722.81 788.338,1733.48 783,1743.5C 781.951,1745.62 780.451,1747.28 778.5,1748.5C 775.14,1748.38 771.807,1748.05 768.5,1747.5C 768.196,1746.85 767.863,1746.18 767.5,1745.5C 764.247,1744.4 760.914,1743.74 757.5,1743.5C 757.167,1743.5 756.833,1743.5 756.5,1743.5C 752.961,1740.5 748.961,1738 744.5,1736C 745.833,1735.33 745.833,1734.67 744.5,1734C 743.365,1733.25 742.365,1733.42 741.5,1734.5C 742.025,1735.19 742.692,1735.69 743.5,1736C 743,1736.17 742.5,1736.33 742,1736.5C 738.87,1735.02 735.703,1733.68 732.5,1732.5C 727.717,1722.93 724.05,1712.93 721.5,1702.5C 720.824,1696.11 719.824,1689.78 718.5,1683.5C 718.54,1681.57 718.873,1679.74 719.5,1678C 717.463,1674.95 715.796,1671.78 714.5,1668.5C 714.5,1667.83 714.5,1667.17 714.5,1666.5C 714.665,1663.15 714.498,1659.82 714,1656.5C 713.722,1655.58 713.222,1654.92 712.5,1654.5C 712.5,1653.83 712.5,1653.17 712.5,1652.5C 712.356,1641.46 711.69,1630.46 710.5,1619.5C 710.946,1613.98 710.446,1608.65 709,1603.5C 707.994,1560.41 708.494,1517.41 710.5,1474.5C 713.098,1460.05 714.764,1445.38 715.5,1430.5C 715.263,1429.21 715.596,1428.21 716.5,1427.5C 717.117,1427.39 717.617,1427.06 718,1426.5C 719.012,1420.28 720.845,1414.45 723.5,1409C 722.541,1406.88 722.374,1404.71 723,1402.5C 724.011,1403.34 725.178,1403.67 726.5,1403.5C 726.683,1401.06 726.016,1398.9 724.5,1397C 726.016,1395.1 726.683,1392.94 726.5,1390.5C 728.008,1384.8 731.008,1380.14 735.5,1376.5C 739.227,1374.75 743.227,1374.08 747.5,1374.5C 747.657,1378.33 749.657,1380.66 753.5,1381.5C 754.298,1383.08 754.798,1384.74 755,1386.5C 755.333,1386.17 755.667,1385.83 756,1385.5C 757.601,1389.29 759.767,1392.62 762.5,1395.5 Z"/></g>
<g><path style="opacity:1" fill="#de5c4f" d="M 334.5,1367.5 C 337.752,1371.18 340.085,1375.52 341.5,1380.5C 338.42,1376.68 336.087,1372.35 334.5,1367.5 Z"/></g>
<g><path style="opacity:1" fill="#e0574b" d="M 1708.5,1373.5 C 1705.43,1379.96 1702.1,1386.3 1698.5,1392.5C 1698.34,1391.13 1698.51,1389.79 1699,1388.5C 1701.44,1384.36 1703.61,1380.03 1705.5,1375.5C 1706.27,1374.39 1707.27,1373.72 1708.5,1373.5 Z"/></g>
<g><path style="opacity:1" fill="#e45444" d="M 762.5,1395.5 C 759.767,1392.62 757.601,1389.29 756,1385.5C 755.667,1385.83 755.333,1386.17 755,1386.5C 754.798,1384.74 754.298,1383.08 753.5,1381.5C 749.657,1380.66 747.657,1378.33 747.5,1374.5C 743.227,1374.08 739.227,1374.75 735.5,1376.5C 737.039,1373.89 739.372,1372.56 742.5,1372.5C 745.865,1372.79 748.865,1373.95 751.5,1376C 756.359,1381.89 760.025,1388.39 762.5,1395.5 Z"/></g>
<g><path style="opacity:1" fill="#df6658" d="M 1227.5,1361.5 C 1229.28,1369.3 1230.62,1377.3 1231.5,1385.5C 1230.84,1384.6 1230.18,1383.6 1229.5,1382.5C 1228.43,1375.54 1227.76,1368.54 1227.5,1361.5 Z"/></g>
<g><path style="opacity:1" fill="#dd594b" d="M 1524.5,1383.5 C 1526.17,1385.98 1527.84,1388.64 1529.5,1391.5C 1530.45,1393.05 1530.79,1394.71 1530.5,1396.5C 1527.72,1392.6 1525.72,1388.26 1524.5,1383.5 Z"/></g>
<g><path style="opacity:1" fill="#e55243" d="M 341.5,1380.5 C 343.41,1382.56 345.743,1384.06 348.5,1385C 349.173,1385.98 349.173,1387.81 348.5,1390.5C 352.653,1397.14 355.986,1404.14 358.5,1411.5C 352.041,1401.58 346.375,1391.25 341.5,1380.5 Z"/></g>
<g><path style="opacity:1" fill="#f04635" d="M 1411.5,1406.5 C 1411.54,1407.58 1411.87,1408.58 1412.5,1409.5C 1416.55,1413.55 1420.55,1417.55 1424.5,1421.5C 1428.9,1425.96 1432.56,1430.96 1435.5,1436.5C 1435.84,1439.2 1437.18,1441.2 1439.5,1442.5C 1451.61,1460.37 1461.94,1479.37 1470.5,1499.5C 1470.5,1503.16 1471.84,1506.16 1474.5,1508.5C 1477.34,1513.53 1479.68,1518.86 1481.5,1524.5C 1482.4,1529.81 1483.23,1535.15 1484,1540.5C 1487.16,1542.21 1488.82,1544.88 1489,1548.5C 1489.71,1549.38 1490.54,1550.05 1491.5,1550.5C 1491.5,1550.83 1491.5,1551.17 1491.5,1551.5C 1496.29,1567.35 1499.96,1582.85 1502.5,1598C 1501.5,1607.11 1499.16,1615.94 1495.5,1624.5C 1492.21,1623.46 1491.88,1624.13 1494.5,1626.5C 1493.62,1627.25 1492.62,1627.75 1491.5,1628C 1492.34,1629.01 1492.67,1630.18 1492.5,1631.5C 1473.68,1646.3 1454.02,1659.97 1433.5,1672.5C 1429.35,1673.27 1426.02,1675.27 1423.5,1678.5C 1416.29,1685.59 1407.63,1688.43 1397.5,1687C 1395.93,1686.39 1394.6,1685.56 1393.5,1684.5C 1392.19,1681.84 1390.85,1679.18 1389.5,1676.5C 1389.53,1674.97 1390.2,1673.8 1391.5,1673C 1389.4,1671.23 1387.07,1669.9 1384.5,1669C 1383.6,1666.69 1382.27,1664.86 1380.5,1663.5C 1375.58,1651.15 1371.58,1638.49 1368.5,1625.5C 1369.01,1622.61 1368.34,1620.28 1366.5,1618.5C 1365.83,1614.83 1365.17,1611.17 1364.5,1607.5C 1364.66,1604.48 1364.5,1601.48 1364,1598.5C 1363.72,1597.58 1363.22,1596.92 1362.5,1596.5C 1362.67,1593.15 1362.5,1589.82 1362,1586.5C 1361.16,1581.95 1359.99,1577.62 1358.5,1573.5C 1357.51,1568.22 1356.84,1562.89 1356.5,1557.5C 1355.37,1541.58 1354.2,1525.58 1353,1509.5C 1351.98,1484.42 1352.65,1459.42 1355,1434.5C 1357.23,1425.56 1359.06,1416.56 1360.5,1407.5C 1367.29,1388.07 1379.63,1383.57 1397.5,1394C 1402.96,1397.29 1407.62,1401.46 1411.5,1406.5 Z"/></g>
<g><path style="opacity:1" fill="#e17d73" d="M 1231.5,1387.5 C 1232.52,1390.97 1233.19,1394.64 1233.5,1398.5C 1231.78,1395.16 1231.12,1391.49 1231.5,1387.5 Z"/></g>
<g><path style="opacity:1" fill="#e0685a" d="M 762.5,1395.5 C 764.734,1399.52 766.401,1403.86 767.5,1408.5C 765.919,1406.33 764.419,1403.99 763,1401.5C 762.505,1399.53 762.338,1397.53 762.5,1395.5 Z"/></g>
<g><path style="opacity:1" fill="#e0584b" d="M 1411.5,1406.5 C 1416.95,1410.61 1421.28,1415.61 1424.5,1421.5C 1420.55,1417.55 1416.55,1413.55 1412.5,1409.5C 1411.87,1408.58 1411.54,1407.58 1411.5,1406.5 Z"/></g>
<g><path style="opacity:1" fill="#e25647" d="M 726.5,1390.5 C 726.683,1392.94 726.016,1395.1 724.5,1397C 726.016,1398.9 726.683,1401.06 726.5,1403.5C 725.178,1403.67 724.011,1403.34 723,1402.5C 722.374,1404.71 722.541,1406.88 723.5,1409C 720.845,1414.45 719.012,1420.28 718,1426.5C 717.617,1427.06 717.117,1427.39 716.5,1427.5C 717.608,1414.45 720.941,1402.12 726.5,1390.5 Z"/></g>
<g><path style="opacity:1" fill="#da6b5d" d="M 768.5,1413.5 C 769.924,1415.51 770.59,1417.85 770.5,1420.5C 769.076,1418.49 768.41,1416.15 768.5,1413.5 Z"/></g>
<g><path style="opacity:1" fill="#e06859" d="M 1233.5,1401.5 C 1235.95,1413.96 1237.95,1426.63 1239.5,1439.5C 1235.24,1427.36 1233.24,1414.69 1233.5,1401.5 Z"/></g>
<g><path style="opacity:1" fill="#e06557" d="M 594.5,1295.5 C 606.432,1359.01 610.432,1423.01 606.5,1487.5C 607.563,1442.7 606.063,1398.03 602,1353.5C 599.854,1343.64 598.187,1333.64 597,1323.5C 596.472,1314.11 595.638,1304.77 594.5,1295.5 Z"/></g>
<g><path style="opacity:1" fill="#df6253" d="M 771.5,1425.5 C 774.5,1433.48 776.5,1441.81 777.5,1450.5C 775.933,1449.32 775.099,1447.65 775,1445.5C 773.297,1438.92 772.13,1432.25 771.5,1425.5 Z"/></g>
<g><path style="opacity:1" fill="#e35445" d="M 1680.5,1423.5 C 1673.65,1435.21 1666.32,1446.54 1658.5,1457.5C 1658.5,1454.5 1658.5,1451.5 1658.5,1448.5C 1659.98,1448.76 1661.31,1448.43 1662.5,1447.5C 1664,1445.17 1665.83,1443.17 1668,1441.5C 1668.5,1439.53 1668.66,1437.53 1668.5,1435.5C 1669.83,1435.5 1671.17,1435.5 1672.5,1435.5C 1672.34,1433.8 1672.51,1432.13 1673,1430.5C 1673.33,1430.83 1673.67,1431.17 1674,1431.5C 1675.28,1427.99 1677.44,1425.32 1680.5,1423.5 Z"/></g>
<g><path style="opacity:1" fill="#e74f3f" d="M 363.5,1419.5 C 365.532,1420.05 366.532,1421.38 366.5,1423.5C 367.5,1423.5 368.5,1423.5 369.5,1423.5C 369.5,1424.83 369.5,1426.17 369.5,1427.5C 372.13,1428.43 374.796,1429.43 377.5,1430.5C 374.856,1431.74 374.023,1433.74 375,1436.5C 376.512,1438.69 378.512,1440.35 381,1441.5C 381.94,1445.3 383.107,1448.97 384.5,1452.5C 378.776,1444.74 373.276,1436.74 368,1428.5C 366.239,1425.59 364.739,1422.59 363.5,1419.5 Z"/></g>
<g><path style="opacity:1" fill="#dd6b58" d="M 1435.5,1436.5 C 1437.33,1438.15 1438.66,1440.15 1439.5,1442.5C 1437.18,1441.2 1435.84,1439.2 1435.5,1436.5 Z"/></g>
<g><path style="opacity:1" fill="#e16657" d="M 715.5,1430.5 C 714.764,1445.38 713.098,1460.05 710.5,1474.5C 710.167,1474.5 709.833,1474.5 709.5,1474.5C 710.37,1459.53 712.37,1444.86 715.5,1430.5 Z"/></g>
<g><path style="opacity:1" fill="#eb8b81" d="M 1353.5,1439.5 C 1353.61,1445.73 1352.95,1451.73 1351.5,1457.5C 1351.52,1451.29 1352.19,1445.29 1353.5,1439.5 Z"/></g>
<g><path style="opacity:1" fill="#dd5749" d="M 1360.5,1407.5 C 1359.06,1416.56 1357.23,1425.56 1355,1434.5C 1352.65,1459.42 1351.98,1484.42 1353,1509.5C 1354.2,1525.58 1355.37,1541.58 1356.5,1557.5C 1356.17,1557.5 1355.83,1557.5 1355.5,1557.5C 1351.96,1524.28 1350.63,1490.94 1351.5,1457.5C 1352.95,1451.73 1353.61,1445.73 1353.5,1439.5C 1354.06,1428.34 1356.4,1417.67 1360.5,1407.5 Z"/></g>
<g><path style="opacity:1" fill="#df6b5d" d="M 777.5,1451.5 C 779.247,1457.96 780.581,1464.63 781.5,1471.5C 780.034,1470.65 779.2,1469.32 779,1467.5C 778.17,1462.19 777.67,1456.86 777.5,1451.5 Z"/></g>
<g><path style="opacity:1" fill="#fee0db" d="M 913.5,1311.5 C 913.168,1375.67 913.501,1439.67 914.5,1503.5C 914.567,1524.84 914.9,1546.17 915.5,1567.5C 913.766,1565.68 912.766,1563.35 912.5,1560.5C 912.202,1477.39 912.535,1394.39 913.5,1311.5 Z"/></g>
<g><path style="opacity:1" fill="#de7f74" d="M 1243.5,1471.5 C 1244.52,1474.97 1245.19,1478.64 1245.5,1482.5C 1243.78,1479.16 1243.12,1475.49 1243.5,1471.5 Z"/></g>
<g><path style="opacity:1" fill="#dd5c4e" d="M 1239.5,1442.5 C 1241.56,1451.93 1242.89,1461.6 1243.5,1471.5C 1243.12,1475.49 1243.78,1479.16 1245.5,1482.5C 1246.16,1486.47 1246.5,1490.47 1246.5,1494.5C 1243.75,1485.25 1241.92,1475.59 1241,1465.5C 1240.48,1457.83 1239.98,1450.16 1239.5,1442.5 Z"/></g>
<g><path style="opacity:1" fill="#dd6255" d="M 781.5,1474.5 C 784.175,1486.56 785.841,1498.9 786.5,1511.5C 785.778,1511.08 785.278,1510.42 785,1509.5C 783.147,1497.91 781.98,1486.24 781.5,1474.5 Z"/></g>
<g><path style="opacity:1" fill="#e35344" d="M 1580.5,1486.5 C 1582.43,1487.64 1583.93,1489.31 1585,1491.5C 1585.31,1490.69 1585.81,1490.03 1586.5,1489.5C 1587.64,1490.78 1587.64,1492.11 1586.5,1493.5C 1590.46,1497.11 1593.13,1501.44 1594.5,1506.5C 1589.35,1500.22 1584.69,1493.55 1580.5,1486.5 Z"/></g>
<g><path style="opacity:1" fill="#dc6555" d="M 1470.5,1499.5 C 1472.59,1502.09 1473.93,1505.09 1474.5,1508.5C 1471.84,1506.16 1470.5,1503.16 1470.5,1499.5 Z"/></g>
<g><path style="opacity:1" fill="#de5c4e" d="M 1246.5,1495.5 C 1250.08,1516.58 1252.74,1537.91 1254.5,1559.5C 1253.88,1559.39 1253.38,1559.06 1253,1558.5C 1251.67,1549.07 1250.33,1539.74 1249,1530.5C 1247.76,1518.86 1246.93,1507.19 1246.5,1495.5 Z"/></g>
<g><path style="opacity:1" fill="#dd5648" d="M 914.5,1502.5 C 915.327,1507.65 915.827,1512.98 916,1518.5C 916.5,1540.16 916.667,1561.83 916.5,1583.5C 916.5,1586.17 916.5,1588.83 916.5,1591.5C 915.508,1583.68 915.174,1575.68 915.5,1567.5C 914.9,1546.17 914.567,1524.84 914.5,1503.5C 914.5,1503.17 914.5,1502.83 914.5,1502.5 Z"/></g>
<g><path style="opacity:1" fill="#de5b4d" d="M 606.5,1487.5 C 605.75,1511.66 603.417,1535.66 599.5,1559.5C 599.167,1559.5 598.833,1559.5 598.5,1559.5C 599.651,1544.01 601.484,1528.68 604,1513.5C 604.333,1506.17 604.667,1498.83 605,1491.5C 605.21,1489.94 605.71,1488.61 606.5,1487.5 Z"/></g>
<g><path style="opacity:1" fill="#e75143" d="M 1481.5,1524.5 C 1485.4,1532.86 1488.73,1541.52 1491.5,1550.5C 1490.54,1550.05 1489.71,1549.38 1489,1548.5C 1488.82,1544.88 1487.16,1542.21 1484,1540.5C 1483.23,1535.15 1482.4,1529.81 1481.5,1524.5 Z"/></g>
<g><path style="opacity:1" fill="#e0685b" d="M 786.5,1511.5 C 789.783,1533.93 792.116,1556.59 793.5,1579.5C 793.167,1579.5 792.833,1579.5 792.5,1579.5C 789.741,1556.86 787.741,1534.2 786.5,1511.5 Z"/></g>
<g><path style="opacity:1" fill="#e55e4f" d="M 470.5,1558.5 C 472.927,1558.52 475.26,1559.02 477.5,1560C 476.862,1561.71 476.862,1563.54 477.5,1565.5C 474.833,1563.5 472.5,1561.17 470.5,1558.5 Z"/></g>
<g><path style="opacity:1" fill="#db5549" d="M 598.5,1560.5 C 597.446,1568.01 596.113,1575.35 594.5,1582.5C 594.335,1578.82 594.501,1575.15 595,1571.5C 595.846,1567.61 597.013,1563.94 598.5,1560.5 Z"/></g>
<g><path style="opacity:1" fill="#df594b" d="M 709.5,1474.5 C 709.833,1474.5 710.167,1474.5 710.5,1474.5C 708.494,1517.41 707.994,1560.41 709,1603.5C 710.446,1608.65 710.946,1613.98 710.5,1619.5C 709.827,1614.44 708.827,1609.44 707.5,1604.5C 706.606,1572.84 706.272,1541.18 706.5,1509.5C 707.293,1497.81 708.293,1486.14 709.5,1474.5 Z"/></g>
<g><path style="opacity:1" fill="#e15d4f" d="M 1491.5,1551.5 C 1497.82,1566.46 1501.82,1582.13 1503.5,1598.5C 1502.69,1609.42 1499.85,1619.75 1495,1629.5C 1494.29,1630.38 1493.46,1631.05 1492.5,1631.5C 1492.67,1630.18 1492.34,1629.01 1491.5,1628C 1492.62,1627.75 1493.62,1627.25 1494.5,1626.5C 1491.88,1624.13 1492.21,1623.46 1495.5,1624.5C 1499.16,1615.94 1501.5,1607.11 1502.5,1598C 1499.96,1582.85 1496.29,1567.35 1491.5,1551.5 Z"/></g>
<g><path style="opacity:1" fill="#fddfd9" d="M 598.5,1559.5 C 598.833,1559.5 599.167,1559.5 599.5,1559.5C 599.269,1568.52 597.935,1577.36 595.5,1586C 595.316,1587.38 594.649,1588.21 593.5,1588.5C 593.517,1586.44 593.85,1584.44 594.5,1582.5C 596.113,1575.35 597.446,1568.01 598.5,1560.5C 598.5,1560.17 598.5,1559.83 598.5,1559.5 Z"/></g>
<g><path style="opacity:1" fill="#fee5df" d="M 1355.5,1557.5 C 1355.83,1557.5 1356.17,1557.5 1356.5,1557.5C 1356.84,1562.89 1357.51,1568.22 1358.5,1573.5C 1359.24,1580.87 1360.24,1588.2 1361.5,1595.5C 1359.27,1590.83 1357.77,1585.83 1357,1580.5C 1356.4,1572.83 1355.9,1565.17 1355.5,1557.5 Z"/></g>
<g><path style="opacity:1" fill="#db5c4d" d="M 1358.5,1573.5 C 1359.99,1577.62 1361.16,1581.95 1362,1586.5C 1362.5,1589.82 1362.67,1593.15 1362.5,1596.5C 1361.83,1596.5 1361.5,1596.17 1361.5,1595.5C 1360.24,1588.2 1359.24,1580.87 1358.5,1573.5 Z"/></g>
<g><path style="opacity:1" fill="#dd6356" d="M 792.5,1579.5 C 792.833,1579.5 793.167,1579.5 793.5,1579.5C 795.141,1603.97 796.141,1628.47 796.5,1653C 796.688,1667.37 796.021,1681.53 794.5,1695.5C 794.89,1656.81 794.223,1618.14 792.5,1579.5 Z"/></g>
<g><path style="opacity:1" fill="#dd5f53" d="M 503.5,1589.5 C 509.739,1593.8 515.406,1598.8 520.5,1604.5C 514.261,1600.2 508.594,1595.2 503.5,1589.5 Z"/></g>
<g><path style="opacity:1" fill="#e36656" d="M 1362.5,1596.5 C 1363.22,1596.92 1363.72,1597.58 1364,1598.5C 1364.5,1601.48 1364.66,1604.48 1364.5,1607.5C 1362.92,1604.12 1362.25,1600.46 1362.5,1596.5 Z"/></g>
<g><path style="opacity:1" fill="#de5c4d" d="M 916.5,1583.5 C 917.302,1584.95 917.802,1586.62 918,1588.5C 918.5,1599.49 918.667,1610.49 918.5,1621.5C 916.954,1611.71 916.288,1601.71 916.5,1591.5C 916.5,1588.83 916.5,1586.17 916.5,1583.5 Z"/></g>
<g><path style="opacity:1" fill="#db5649" d="M 590.5,1599.5 C 590.04,1605.81 588.707,1611.81 586.5,1617.5C 586.336,1614.81 586.503,1612.15 587,1609.5C 587.937,1606.02 589.104,1602.69 590.5,1599.5 Z"/></g>
<g><path style="opacity:1" fill="#de675d" d="M 527.5,1610.5 C 530.089,1611.42 532.089,1613.09 533.5,1615.5C 530.911,1614.58 528.911,1612.91 527.5,1610.5 Z"/></g>
<g><path style="opacity:1" fill="#dd6457" d="M 533.5,1615.5 C 535.749,1616.08 537.415,1617.41 538.5,1619.5C 536.251,1618.92 534.585,1617.59 533.5,1615.5 Z"/></g>
<g><path style="opacity:1" fill="#e06b5e" d="M 1366.5,1618.5 C 1368.34,1620.28 1369.01,1622.61 1368.5,1625.5C 1367.59,1623.34 1366.93,1621.01 1366.5,1618.5 Z"/></g>
<g><path style="opacity:1" fill="#e35546" d="M 538.5,1619.5 C 541.157,1619.75 543.49,1620.75 545.5,1622.5C 546.086,1622.29 546.586,1621.96 547,1621.5C 546.621,1623.07 546.788,1624.57 547.5,1626C 549.441,1627.9 551.774,1628.74 554.5,1628.5C 554.392,1630.51 555.058,1632.18 556.5,1633.5C 549.768,1629.8 543.768,1625.13 538.5,1619.5 Z"/></g>
<g><path style="opacity:1" fill="#de685d" d="M 556.5,1633.5 C 558.749,1634.08 560.415,1635.41 561.5,1637.5C 559.251,1636.92 557.585,1635.59 556.5,1633.5 Z"/></g>
<g><path style="opacity:1" fill="#de594c" d="M 707.5,1604.5 C 708.827,1609.44 709.827,1614.44 710.5,1619.5C 711.69,1630.46 712.356,1641.46 712.5,1652.5C 710.174,1636.72 708.507,1620.72 707.5,1604.5 Z"/></g>
<g><path style="opacity:1" fill="#ffeae6" d="M 706.5,1509.5 C 706.272,1541.18 706.606,1572.84 707.5,1604.5C 708.507,1620.72 710.174,1636.72 712.5,1652.5C 712.5,1653.17 712.5,1653.83 712.5,1654.5C 712.5,1655.5 712.5,1656.5 712.5,1657.5C 710.852,1654.21 709.685,1650.54 709,1646.5C 707.436,1627.19 706.102,1607.86 705,1588.5C 704.333,1566.83 704.333,1545.17 705,1523.5C 705.174,1518.65 705.674,1513.98 706.5,1509.5 Z"/></g>
<g><path style="opacity:1" fill="#e25245" d="M 919.5,1631.5 C 922.234,1641.76 923.234,1652.42 922.5,1663.5C 921.5,1658.17 920.5,1652.83 919.5,1647.5C 919.5,1642.17 919.5,1636.83 919.5,1631.5 Z"/></g>
<g><path style="opacity:1" fill="#dc6559" d="M 569.5,1643.5 C 571.757,1643.96 573.757,1644.96 575.5,1646.5C 576.141,1645.01 577.141,1644.01 578.5,1643.5C 578.468,1645.57 577.468,1646.9 575.5,1647.5C 573.129,1646.65 571.129,1645.32 569.5,1643.5 Z"/></g>
<g><path style="opacity:1" fill="#d9584a" d="M 712.5,1654.5 C 713.222,1654.92 713.722,1655.58 714,1656.5C 714.498,1659.82 714.665,1663.15 714.5,1666.5C 713.525,1663.69 712.858,1660.69 712.5,1657.5C 712.5,1656.5 712.5,1655.5 712.5,1654.5 Z"/></g>
<g><path style="opacity:1" fill="#e75242" d="M 1380.5,1663.5 C 1382.27,1664.86 1383.6,1666.69 1384.5,1669C 1387.07,1669.9 1389.4,1671.23 1391.5,1673C 1390.2,1673.8 1389.53,1674.97 1389.5,1676.5C 1390.85,1679.18 1392.19,1681.84 1393.5,1684.5C 1390.91,1683.75 1389.08,1682.08 1388,1679.5C 1385.21,1674.26 1382.71,1668.93 1380.5,1663.5 Z"/></g>
<g><path style="opacity:1" fill="#e15445" d="M 714.5,1668.5 C 715.796,1671.78 717.463,1674.95 719.5,1678C 718.873,1679.74 718.54,1681.57 718.5,1683.5C 719.824,1689.78 720.824,1696.11 721.5,1702.5C 718.435,1691.43 716.102,1680.09 714.5,1668.5 Z"/></g>
<g><path style="opacity:1" fill="#de5a4d" d="M 1254.5,1561.5 C 1261.38,1609.81 1263.71,1658.47 1261.5,1707.5C 1260.08,1709.51 1259.41,1711.85 1259.5,1714.5C 1259.88,1719.26 1258.88,1723.59 1256.5,1727.5C 1257.44,1720.05 1258.61,1712.72 1260,1705.5C 1260.67,1680.83 1260.67,1656.17 1260,1631.5C 1257.66,1608.17 1255.82,1584.83 1254.5,1561.5 Z"/></g>
<g><path style="opacity:1" fill="#de5f51" d="M 1433.5,1672.5 C 1430.51,1675 1427.17,1677 1423.5,1678.5C 1426.02,1675.27 1429.35,1673.27 1433.5,1672.5 Z"/></g>
<g><path style="opacity:1" fill="#fee3dc" d="M 919.5,1647.5 C 920.5,1652.83 921.5,1658.17 922.5,1663.5C 922.845,1671.27 923.845,1678.94 925.5,1686.5C 924.842,1685.6 924.176,1684.6 923.5,1683.5C 921.036,1671.72 919.703,1659.72 919.5,1647.5 Z"/></g>
<g><path style="opacity:1" fill="#de655a" d="M 794.5,1695.5 C 794.844,1701.1 794.178,1706.43 792.5,1711.5C 792.073,1705.89 792.74,1700.55 794.5,1695.5 Z"/></g>
<g><path style="opacity:1" fill="#df5a4d" d="M 922.5,1663.5 C 924.626,1672.26 926.126,1681.26 927,1690.5C 929.993,1699.3 931.827,1708.3 932.5,1717.5C 929.094,1707.53 926.761,1697.2 925.5,1686.5C 923.845,1678.94 922.845,1671.27 922.5,1663.5 Z"/></g>
<g><path style="opacity:1" fill="#da786b" d="M 1261.5,1707.5 C 1261.59,1710.15 1260.92,1712.49 1259.5,1714.5C 1259.41,1711.85 1260.08,1709.51 1261.5,1707.5 Z"/></g>
<g><path style="opacity:1" fill="#dc5749" d="M 932.5,1717.5 C 935.357,1720.81 936.691,1724.81 936.5,1729.5C 934.653,1725.78 933.32,1721.78 932.5,1717.5 Z"/></g>
<g><path style="opacity:1" fill="#e45646" d="M 732.5,1732.5 C 735.703,1733.68 738.87,1735.02 742,1736.5C 742.5,1736.33 743,1736.17 743.5,1736C 742.692,1735.69 742.025,1735.19 741.5,1734.5C 742.365,1733.42 743.365,1733.25 744.5,1734C 745.833,1734.67 745.833,1735.33 744.5,1736C 748.961,1738 752.961,1740.5 756.5,1743.5C 749.896,1740.91 743.229,1738.41 736.5,1736C 734.676,1735.34 733.343,1734.17 732.5,1732.5 Z"/></g>
<g><path style="opacity:1" fill="#df5a4b" d="M 757.5,1743.5 C 760.914,1743.74 764.247,1744.4 767.5,1745.5C 767.863,1746.18 768.196,1746.85 768.5,1747.5C 764.605,1746.54 760.939,1745.2 757.5,1743.5 Z"/></g>
<g><path style="opacity:1" fill="#e85041" d="M 1252.5,1734.5 C 1247.08,1742.73 1240.08,1749.4 1231.5,1754.5C 1232.25,1751.06 1233.92,1748.06 1236.5,1745.5C 1237.77,1746.43 1239.1,1746.59 1240.5,1746C 1240.04,1745.59 1239.71,1745.09 1239.5,1744.5C 1240.91,1742.42 1242.41,1740.42 1244,1738.5C 1245.01,1739.34 1246.18,1739.67 1247.5,1739.5C 1247.34,1738.13 1247.51,1736.79 1248,1735.5C 1248.41,1735.96 1248.91,1736.29 1249.5,1736.5C 1250.27,1735.39 1251.27,1734.72 1252.5,1734.5 Z"/></g>
<g><path style="opacity:1" fill="#dc6a5e" d="M 768.5,1747.5 C 771.807,1748.05 775.14,1748.38 778.5,1748.5C 778.38,1749.59 777.713,1750.25 776.5,1750.5C 773.584,1749.87 770.918,1748.87 768.5,1747.5 Z"/></g>
<g><path style="opacity:1" fill="#df5243" d="M 1228.5,1756.5 C 1222.83,1760.34 1216.83,1763.67 1210.5,1766.5C 1210.72,1765.27 1211.39,1764.27 1212.5,1763.5C 1215.17,1762.37 1217.83,1761.37 1220.5,1760.5C 1220.09,1757.72 1220.92,1757.06 1223,1758.5C 1224.6,1757.12 1226.43,1756.45 1228.5,1756.5 Z"/></g>
<g><path style="opacity:1" fill="#e45245" d="M 956.5,1764.5 C 958.544,1765.03 960.211,1766.2 961.5,1768C 963.134,1768.49 964.801,1768.66 966.5,1768.5C 966.238,1769.98 966.571,1771.31 967.5,1772.5C 968.855,1773.19 969.855,1774.19 970.5,1775.5C 964.736,1773.28 960.069,1769.61 956.5,1764.5 Z"/></g>
<g><path style="opacity:1" fill="#dc5646" d="M 1208.5,1767.5 C 1201.47,1769.94 1194.13,1771.61 1186.5,1772.5C 1189.18,1770.92 1192.18,1769.75 1195.5,1769C 1199.85,1768.54 1204.18,1768.04 1208.5,1767.5 Z"/></g>
<g><path style="opacity:1" fill="#de5c4f" d="M 973.5,1777.5 C 975.262,1777.36 976.929,1777.69 978.5,1778.5C 981.038,1779.99 983.371,1781.66 985.5,1783.5C 980.902,1782.53 976.902,1780.53 973.5,1777.5 Z"/></g>
<g><path style="opacity:1" fill="#fcd6d1" d="M 1174.5,1775.5 C 1169.94,1778.02 1164.94,1779.02 1159.5,1778.5C 1164.4,1777.59 1169.4,1776.59 1174.5,1775.5 Z"/></g>
<g><path style="opacity:1" fill="#df6356" d="M 1129.5,1782.5 C 1121.12,1784.8 1112.46,1785.8 1103.5,1785.5C 1112,1784.23 1120.67,1783.23 1129.5,1782.5 Z"/></g>
<g><path style="opacity:1" fill="#dd766c" d="M 1087.5,1787.5 C 1080.68,1788.57 1073.68,1789.23 1066.5,1789.5C 1067.95,1788.7 1069.62,1788.2 1071.5,1788C 1076.82,1787.5 1082.16,1787.33 1087.5,1787.5 Z"/></g>
<g><path style="opacity:1" fill="#dd594a" d="M 1103.5,1785.5 C 1098.37,1786.66 1093.03,1787.33 1087.5,1787.5C 1082.16,1787.33 1076.82,1787.5 1071.5,1788C 1069.62,1788.2 1067.95,1788.7 1066.5,1789.5C 1044.84,1790.53 1023.18,1790.7 1001.5,1790C 995.786,1788.49 990.452,1786.32 985.5,1783.5C 987.848,1783.67 990.182,1784 992.5,1784.5C 994.593,1784.51 996.426,1783.85 998,1782.5C 998.54,1784.13 998.04,1785.47 996.5,1786.5C 997.376,1787.25 998.376,1787.75 999.5,1788C 1021.5,1788.67 1043.5,1788.67 1065.5,1788C 1078.02,1786.61 1090.68,1785.78 1103.5,1785.5 Z"/></g>
</svg>
